<?xml version="1.0" encoding="UTF-8" standalone="no"?><svg xmlns="http://www.w3.org/2000/svg" xmlns:xlink="http://www.w3.org/1999/xlink" contentStyleType="text/css" height="799px" preserveAspectRatio="none" style="width:588px;height:799px;background:#FFFFFF;" version="1.1" viewBox="0 0 588 799" width="588px" zoomAndPan="magnify"><defs/><g><ellipse cx="129.5" cy="20" fill="#222222" rx="10" ry="10" style="stroke:#222222;stroke-width:1.0;"/><rect fill="#F1F1F1" height="34.1328" rx="12.5" ry="12.5" style="stroke:#181818;stroke-width:0.5;" width="208" x="25.5" y="50"/><text fill="#000000" font-family="sans-serif" font-size="12" lengthAdjust="spacing" textLength="188" x="35.5" y="71.6016">Start Autoset Inventory Sequence</text><rect fill="#F1F1F1" height="34.1328" rx="12.5" ry="12.5" style="stroke:#181818;stroke-width:0.5;" width="106" x="76.5" y="104.1328"/><text fill="#000000" font-family="sans-serif" font-size="12" lengthAdjust="spacing" textLength="86" x="86.5" y="125.7344">Set Target to A</text><rect fill="#F1F1F1" height="34.1328" rx="12.5" ry="12.5" style="stroke:#181818;stroke-width:0.5;" width="201" x="29" y="202.2656"/><text fill="#000000" font-family="sans-serif" font-size="12" lengthAdjust="spacing" textLength="181" x="39" y="223.8672">Set RF mode to first value in list</text><rect fill="#F1F1F1" height="34.1328" rx="12.5" ry="12.5" style="stroke:#181818;stroke-width:0.5;" width="143" x="58" y="300.3984"/><text fill="#000000" font-family="sans-serif" font-size="12" lengthAdjust="spacing" textLength="123" x="68" y="322">Start Inventory Round</text><rect fill="#F1F1F1" height="48.2656" rx="12.5" ry="12.5" style="stroke:#181818;stroke-width:0.5;" width="219" x="20" y="369.5313"/><text fill="#000000" font-family="sans-serif" font-size="12" lengthAdjust="spacing" textLength="154" x="30" y="391.1328">Inventory runs until all tags</text><text fill="#000000" font-family="sans-serif" font-size="12" lengthAdjust="spacing" textLength="195" x="34" y="405.2656">in the Field of View are singulated</text><polygon fill="#F1F1F1" points="129.5,256.3984,141.5,268.3984,129.5,280.3984,117.5,268.3984,129.5,256.3984" style="stroke:#181818;stroke-width:0.5;"/><polygon fill="#F1F1F1" points="75.5,437.7969,183.5,437.7969,195.5,449.7969,183.5,461.7969,75.5,461.7969,63.5,449.7969,75.5,437.7969" style="stroke:#181818;stroke-width:0.5;"/><text fill="#000000" font-family="sans-serif" font-size="11" lengthAdjust="spacing" textLength="108" x="75.5" y="453.9541">Last RF mode in list?</text><text fill="#000000" font-family="sans-serif" font-size="11" lengthAdjust="spacing" textLength="14" x="195.5" y="447.4766">no</text><rect fill="#F1F1F1" height="34.1328" rx="12.5" ry="12.5" style="stroke:#181818;stroke-width:0.5;" width="190" x="249" y="342.0313"/><text fill="#000000" font-family="sans-serif" font-size="12" lengthAdjust="spacing" textLength="170" x="259" y="363.6328">Iterate to next RF mode in list</text><polygon fill="#F1F1F1" points="80,503.0723,179,503.0723,191,515.0723,179,527.0723,80,527.0723,68,515.0723,80,503.0723" style="stroke:#181818;stroke-width:0.5;"/><text fill="#000000" font-family="sans-serif" font-size="11" lengthAdjust="spacing" textLength="14" x="133.5" y="537.707">no</text><text fill="#000000" font-family="sans-serif" font-size="11" lengthAdjust="spacing" textLength="99" x="80" y="519.2295">Dual Target Mode?</text><polygon fill="#F1F1F1" points="129.5,158.2656,141.5,170.2656,129.5,182.2656,117.5,170.2656,129.5,158.2656" style="stroke:#181818;stroke-width:0.5;"/><polygon fill="#F1F1F1" points="61,611.8477,198,611.8477,210,623.8477,198,635.8477,61,635.8477,49,623.8477,61,611.8477" style="stroke:#181818;stroke-width:0.5;"/><text fill="#000000" font-family="sans-serif" font-size="11" lengthAdjust="spacing" textLength="18" x="133.5" y="646.4824">yes</text><text fill="#000000" font-family="sans-serif" font-size="11" lengthAdjust="spacing" textLength="137" x="61" y="628.0049">Both Targets Inventoried?</text><text fill="#000000" font-family="sans-serif" font-size="11" lengthAdjust="spacing" textLength="14" x="210" y="621.5273">no</text><rect fill="#F1F1F1" height="34.1328" rx="12.5" ry="12.5" style="stroke:#181818;stroke-width:0.5;" width="128" x="449" y="370.9199"/><text fill="#000000" font-family="sans-serif" font-size="12" lengthAdjust="spacing" textLength="108" x="459" y="392.5215">Swap Target A-&gt;B</text><polygon fill="#F1F1F1" points="129.5,667.9824,141.5,679.9824,129.5,691.9824,117.5,679.9824,129.5,667.9824" style="stroke:#181818;stroke-width:0.5;"/><rect fill="#F1F1F1" height="34.1328" rx="12.5" ry="12.5" style="stroke:#181818;stroke-width:0.5;" width="178" x="40.5" y="711.9824"/><text fill="#000000" font-family="sans-serif" font-size="12" lengthAdjust="spacing" textLength="158" x="50.5" y="733.584">AutoSet Inventory Complete</text><ellipse cx="129.5" cy="777.1152" fill="none" rx="11" ry="11" style="stroke:#222222;stroke-width:1.0;"/><ellipse cx="129.5" cy="777.1152" fill="#222222" rx="6" ry="6" style="stroke:#111111;stroke-width:1.0;"/><line style="stroke:#181818;stroke-width:1.0;" x1="129.5" x2="129.5" y1="30" y2="50"/><polygon fill="#181818" points="125.5,40,129.5,50,133.5,40,129.5,44" style="stroke:#181818;stroke-width:1.0;"/><line style="stroke:#181818;stroke-width:1.0;" x1="129.5" x2="129.5" y1="84.1328" y2="104.1328"/><polygon fill="#181818" points="125.5,94.1328,129.5,104.1328,133.5,94.1328,129.5,98.1328" style="stroke:#181818;stroke-width:1.0;"/><line style="stroke:#181818;stroke-width:1.0;" x1="129.5" x2="129.5" y1="334.5313" y2="369.5313"/><polygon fill="#181818" points="125.5,359.5313,129.5,369.5313,133.5,359.5313,129.5,363.5313" style="stroke:#181818;stroke-width:1.0;"/><line style="stroke:#181818;stroke-width:1.0;" x1="129.5" x2="129.5" y1="280.3984" y2="300.3984"/><polygon fill="#181818" points="125.5,290.3984,129.5,300.3984,133.5,290.3984,129.5,294.3984" style="stroke:#181818;stroke-width:1.0;"/><line style="stroke:#181818;stroke-width:1.0;" x1="195.5" x2="344" y1="449.7969" y2="449.7969"/><line style="stroke:#181818;stroke-width:1.0;" x1="344" x2="344" y1="376.1641" y2="449.7969"/><polygon fill="#181818" points="340,386.1641,344,376.1641,348,386.1641,344,382.1641" style="stroke:#181818;stroke-width:1.0;"/><line style="stroke:#181818;stroke-width:1.0;" x1="344" x2="344" y1="268.3984" y2="342.0313"/><line style="stroke:#181818;stroke-width:1.0;" x1="344" x2="141.5" y1="268.3984" y2="268.3984"/><polygon fill="#181818" points="151.5,264.3984,141.5,268.3984,151.5,272.3984,147.5,268.3984" style="stroke:#181818;stroke-width:1.0;"/><line style="stroke:#181818;stroke-width:1.0;" x1="129.5" x2="129.5" y1="417.7969" y2="437.7969"/><polygon fill="#181818" points="125.5,427.7969,129.5,437.7969,133.5,427.7969,129.5,431.7969" style="stroke:#181818;stroke-width:1.0;"/><line style="stroke:#181818;stroke-width:1.0;" x1="129.5" x2="129.5" y1="236.3984" y2="256.3984"/><polygon fill="#181818" points="125.5,246.3984,129.5,256.3984,133.5,246.3984,129.5,250.3984" style="stroke:#181818;stroke-width:1.0;"/><line style="stroke:#181818;stroke-width:1.0;" x1="129.5" x2="129.5" y1="527.0723" y2="551.5498"/><line style="stroke:#181818;stroke-width:1.0;" x1="129.5" x2="10" y1="551.5498" y2="551.5498"/><line style="stroke:#181818;stroke-width:1.0;" x1="10" x2="10" y1="551.5498" y2="679.9824"/><line style="stroke:#181818;stroke-width:1.0;" x1="10" x2="117.5" y1="679.9824" y2="679.9824"/><polygon fill="#181818" points="107.5,675.9824,117.5,679.9824,107.5,683.9824,111.5,679.9824" style="stroke:#181818;stroke-width:1.0;"/><line style="stroke:#181818;stroke-width:1.0;" x1="191" x2="203" y1="515.0723" y2="515.0723"/><polygon fill="#181818" points="199,538.5498,203,548.5498,207,538.5498,203,542.5498" style="stroke:#181818;stroke-width:1.0;"/><line style="stroke:#181818;stroke-width:1.0;" x1="203" x2="203" y1="515.0723" y2="570.5498"/><line style="stroke:#181818;stroke-width:1.0;" x1="203" x2="129.5" y1="570.5498" y2="570.5498"/><line style="stroke:#181818;stroke-width:1.0;" x1="129.5" x2="129.5" y1="461.7969" y2="503.0723"/><polygon fill="#181818" points="125.5,493.0723,129.5,503.0723,133.5,493.0723,129.5,497.0723" style="stroke:#181818;stroke-width:1.0;"/><text fill="#000000" font-family="sans-serif" font-size="11" lengthAdjust="spacing" textLength="18" x="133.5" y="483.252">yes</text><line style="stroke:#181818;stroke-width:1.0;" x1="129.5" x2="129.5" y1="182.2656" y2="202.2656"/><polygon fill="#181818" points="125.5,192.2656,129.5,202.2656,133.5,192.2656,129.5,196.2656" style="stroke:#181818;stroke-width:1.0;"/><line style="stroke:#181818;stroke-width:1.0;" x1="210" x2="513" y1="623.8477" y2="623.8477"/><line style="stroke:#181818;stroke-width:1.0;" x1="513" x2="513" y1="405.0527" y2="623.8477"/><polygon fill="#181818" points="509,415.0527,513,405.0527,517,415.0527,513,411.0527" style="stroke:#181818;stroke-width:1.0;"/><line style="stroke:#181818;stroke-width:1.0;" x1="513" x2="513" y1="170.2656" y2="370.9199"/><line style="stroke:#181818;stroke-width:1.0;" x1="513" x2="141.5" y1="170.2656" y2="170.2656"/><polygon fill="#181818" points="151.5,166.2656,141.5,170.2656,151.5,174.2656,147.5,170.2656" style="stroke:#181818;stroke-width:1.0;"/><line style="stroke:#181818;stroke-width:1.0;" x1="129.5" x2="129.5" y1="570.5498" y2="611.8477"/><polygon fill="#181818" points="125.5,601.8477,129.5,611.8477,133.5,601.8477,129.5,605.8477" style="stroke:#181818;stroke-width:1.0;"/><text fill="#000000" font-family="sans-serif" font-size="11" lengthAdjust="spacing" textLength="18" x="133.5" y="592.0049">yes</text><line style="stroke:#181818;stroke-width:1.0;" x1="129.5" x2="129.5" y1="635.8477" y2="667.9824"/><polygon fill="#181818" points="125.5,657.9824,129.5,667.9824,133.5,657.9824,129.5,661.9824" style="stroke:#181818;stroke-width:1.0;"/><line style="stroke:#181818;stroke-width:1.0;" x1="129.5" x2="129.5" y1="138.2656" y2="158.2656"/><polygon fill="#181818" points="125.5,148.2656,129.5,158.2656,133.5,148.2656,129.5,152.2656" style="stroke:#181818;stroke-width:1.0;"/><line style="stroke:#181818;stroke-width:1.0;" x1="129.5" x2="129.5" y1="691.9824" y2="711.9824"/><polygon fill="#181818" points="125.5,701.9824,129.5,711.9824,133.5,701.9824,129.5,705.9824" style="stroke:#181818;stroke-width:1.0;"/><line style="stroke:#181818;stroke-width:1.0;" x1="129.5" x2="129.5" y1="746.1152" y2="766.1152"/><polygon fill="#181818" points="125.5,756.1152,129.5,766.1152,133.5,756.1152,129.5,760.1152" style="stroke:#181818;stroke-width:1.0;"/><!--MD5=[1ab6f8e66d9ecd4930c4535082d12156]
@startuml autoset_activity_diagram
start
:Start Autoset Inventory Sequence;
:Set Target to A;
repeat
    :Set RF mode to first value in list;
    repeat
        :Start Inventory Round;
        :Inventory runs until all tags \n in the Field of View are singulated;
    backward:Iterate to next RF mode in list;
    repeat while (Last RF mode in list?) is (no)
    ->yes;
    if (Dual Target Mode?) then (no)
        break
    endif
    ->yes;
backward:Swap Target A->B;
repeat while (Both Targets Inventoried?) is (no) not (yes)
:AutoSet Inventory Complete;
stop
@enduml

PlantUML version 1.2022.12(Sun Oct 23 11:12:26 PDT 2022)
(GPL source distribution)
Java Runtime: OpenJDK Runtime Environment
JVM: OpenJDK 64-Bit Server VM
Default Encoding: UTF-8
Language: en
Country: US
--></g></svg>