<?xml version="1.0" encoding="utf-8" ?>
<svg baseProfile="full" height="210px" version="1.1" width="630px" xmlns="http://www.w3.org/2000/svg" xmlns:ev="http://www.w3.org/2001/xml-events" xmlns:xlink="http://www.w3.org/1999/xlink"><defs /><style type="text/css"><![CDATA[.text-monospace {
    font-size:12px;
    font-family:monospace;
}
.box-field {
    stroke:#002b49;
    stroke-width:1;
    fill:#67cfe3;
    fill-opacity:1;
}
.box-padding {
    fill:#ieaeff2;
    fill-opacity:1;
}
]]></style><text class="text-monospace" x="101.5" y="19.0">0</text><text class="text-monospace" x="251.5" y="19.0">1</text><text class="text-monospace" x="401.5" y="19.0">2</text><text class="text-monospace" x="551.5" y="19.0">3</text><text class="text-monospace" x="11.5" y="49.0"> 0</text><text class="text-monospace" x="11.5" y="79.0"> 4</text><text class="text-monospace" x="11.5" y="109.0"> 8</text><text class="text-monospace" x="11.5" y="139.0">12</text><text class="text-monospace" x="11.5" y="169.0">16</text><text class="text-monospace" x="11.5" y="199.0">20</text><rect class="box-field" height="30" width="150" x="30" y="30"><title>packet_length</title></rect><text class="text-monospace" x="59.5" y="49.0">packet_length</text><rect class="box-field" height="30" width="150" x="180" y="30"><title>packet_type</title></rect><text class="text-monospace" x="216.5" y="49.0">packet_type</text><rect class="box-field" height="30" width="300" x="330" y="30"><title>sha</title></rect><text class="text-monospace" x="469.5" y="49.0">sha</text><rect class="box-field" height="30" width="600" x="30" y="60"><title>us_counter</title></rect><text class="text-monospace" x="295.0" y="79.0">us_counter</text><rect class="box-field" height="30" width="150" x="30" y="90"><title>transaction_id</title></rect><text class="text-monospace" x="56.0" y="109.0">transaction_id</text><rect class="box-field" height="30" width="150" x="180" y="90"><title>status</title></rect><text class="text-monospace" x="234.0" y="109.0">status</text><rect class="box-field" height="30" width="150" x="330" y="90"><title>valid_path_metrics</title></rect><text class="text-monospace" x="342.0" y="109.0">valid_path_metrics</text><rect class="box-field" height="30" width="150" x="480" y="90"><title>packet_rfu</title></rect><text class="text-monospace" x="520.0" y="109.0">packet_rfu</text><rect class="box-field" height="30" width="300" x="30" y="120"><title>rf_phase_begin</title></rect><text class="text-monospace" x="131.0" y="139.0">rf_phase_begin</text><rect class="box-field" height="30" width="300" x="330" y="120"><title>rf_phase_end</title></rect><text class="text-monospace" x="438.0" y="139.0">rf_phase_end</text><rect class="box-field" height="30" width="300" x="30" y="150"><title>rssi</title></rect><text class="text-monospace" x="166.0" y="169.0">rssi</text><rect class="box-field" height="30" width="300" x="330" y="150"><title>num_bits</title></rect><text class="text-monospace" x="452.0" y="169.0">num_bits</text><rect class="box-field" height="30" width="600" x="30" y="180"><title>dynamic_data_start</title></rect><text class="text-monospace" x="267.0" y="199.0">dynamic_data_start</text></svg>