<?xml version="1.0" encoding="utf-8" ?>
<svg baseProfile="full" height="240px" version="1.1" width="630px" xmlns="http://www.w3.org/2000/svg" xmlns:ev="http://www.w3.org/2001/xml-events" xmlns:xlink="http://www.w3.org/1999/xlink"><defs /><style type="text/css"><![CDATA[.text-monospace {
    font-size:12px;
    font-family:monospace;
}
.box-field {
    stroke:#002b49;
    stroke-width:1;
    fill:#67cfe3;
    fill-opacity:1;
}
.box-padding {
    fill:#ieaeff2;
    fill-opacity:1;
}
]]></style><text class="text-monospace" x="101.5" y="19.0">0</text><text class="text-monospace" x="251.5" y="19.0">1</text><text class="text-monospace" x="401.5" y="19.0">2</text><text class="text-monospace" x="551.5" y="19.0">3</text><text class="text-monospace" x="11.5" y="49.0"> 0</text><text class="text-monospace" x="11.5" y="79.0"> 4</text><text class="text-monospace" x="11.5" y="109.0"> 8</text><text class="text-monospace" x="11.5" y="139.0">12</text><text class="text-monospace" x="11.5" y="169.0">16</text><text class="text-monospace" x="11.5" y="199.0">20</text><text class="text-monospace" x="11.5" y="229.0">24</text><rect class="box-field" height="30" width="150" x="30" y="30"><title>packet_length</title></rect><text class="text-monospace" x="59.5" y="49.0">packet_length</text><rect class="box-field" height="30" width="150" x="180" y="30"><title>packet_type</title></rect><text class="text-monospace" x="216.5" y="49.0">packet_type</text><rect class="box-field" height="30" width="300" x="330" y="30"><title>sha</title></rect><text class="text-monospace" x="469.5" y="49.0">sha</text><rect class="box-field" height="30" width="600" x="30" y="60"><title>us_counter</title></rect><text class="text-monospace" x="295.0" y="79.0">us_counter</text><rect class="box-field" height="30" width="600" x="30" y="90"><title>duration_us</title></rect><text class="text-monospace" x="291.5" y="109.0">duration_us</text><rect class="box-field" height="30" width="600" x="30" y="120"><title>total_slots</title></rect><text class="text-monospace" x="291.5" y="139.0">total_slots</text><rect class="box-field" height="30" width="300" x="30" y="150"><title>num_slots</title></rect><text class="text-monospace" x="148.5" y="169.0">num_slots</text><rect class="box-field" height="30" width="300" x="330" y="150"><title>empty_slots</title></rect><text class="text-monospace" x="441.5" y="169.0">empty_slots</text><rect class="box-field" height="30" width="300" x="30" y="180"><title>single_slots</title></rect><text class="text-monospace" x="138.0" y="199.0">single_slots</text><rect class="box-field" height="30" width="300" x="330" y="180"><title>collided_slots</title></rect><text class="text-monospace" x="431.0" y="199.0">collided_slots</text><rect class="box-field" height="30" width="150" x="30" y="210"><title>reason</title></rect><text class="text-monospace" x="84.0" y="229.0">reason</text><rect class="box-field" height="30" width="150" x="180" y="210"><title>final_q</title></rect><text class="text-monospace" x="230.5" y="229.0">final_q</text><rect class="box-field" height="30" width="150" x="330" y="210"><title>min_q_count</title></rect><text class="text-monospace" x="366.5" y="229.0">min_q_count</text><rect class="box-field" height="30" width="150" x="480" y="210"><title>queries_since_valid_epc_count</title></rect><text class="text-monospace" x="480" y="229.0">queries_since_valid_epc_count</text></svg>