<?xml version="1.0" encoding="UTF-8" standalone="no"?>
<!DOCTYPE svg PUBLIC "-//W3C//DTD SVG 1.1//EN" "http://www.w3.org/Graphics/SVG/1.1/DTD/svg11.dtd">
<!-- Generated by Microsoft Visio, SVG Export ex10_api_overview_bd_v2.svg Page-1 -->
<svg xmlns="http://www.w3.org/2000/svg" xmlns:xlink="http://www.w3.org/1999/xlink" xmlns:ev="http://www.w3.org/2001/xml-events"
		xmlns:v="http://schemas.microsoft.com/visio/2003/SVGExtensions/" width="7.28346in" height="8.05222in"
		viewBox="0 0 524.409 579.76" xml:space="preserve" color-interpolation-filters="sRGB" class="st17">
	<v:documentProperties v:langID="1033"/>

	<style type="text/css">
	<![CDATA[
		.st1 {fill:#dbeef3;stroke:#000000;stroke-linecap:round;stroke-linejoin:round;stroke-width:1}
		.st2 {fill:#000000;font-family:Calibri;font-size:1.16666em}
		.st3 {fill:#dbeef3;stroke:#000000;stroke-dasharray:7,5;stroke-linecap:round;stroke-linejoin:round;stroke-width:1}
		.st4 {fill:#ebf1df;fill-opacity:0.68;stroke:#000000;stroke-linecap:round;stroke-linejoin:round;stroke-width:0.75}
		.st5 {fill:#000000;font-family:Calibri;font-size:1.00001em}
		.st6 {fill:#d7e3bf;fill-opacity:0.68;stroke:#000000;stroke-linecap:round;stroke-linejoin:round;stroke-width:0.75}
		.st7 {font-size:1em}
		.st8 {fill:#ebf1df;stroke:#000000;stroke-linecap:round;stroke-linejoin:round;stroke-width:0.75}
		.st9 {fill:#000000;font-family:Calibri;font-size:0.833336em}
		.st10 {fill:#ebf1df;stroke:#000000;stroke-linecap:round;stroke-linejoin:round;stroke-width:1}
		.st11 {marker-end:url(#mrkr5-48);marker-start:url(#mrkr5-46);stroke:#000000;stroke-linecap:round;stroke-linejoin:round;stroke-width:0.75}
		.st12 {fill:#000000;fill-opacity:1;stroke:#000000;stroke-opacity:1;stroke-width:0.22935779816514}
		.st13 {fill:#000000;stroke:#000000;stroke-linecap:butt;stroke-width:0.25}
		.st14 {fill:#ffffff;fill-opacity:0.68;stroke:#000000;stroke-linecap:round;stroke-linejoin:round;stroke-width:0.75}
		.st15 {fill:#789440;fill-opacity:0.68;stroke:#000000;stroke-linecap:round;stroke-linejoin:round;stroke-width:0.75}
		.st16 {fill:#c4d6a0;fill-opacity:0.68;stroke:#000000;stroke-linecap:round;stroke-linejoin:round;stroke-width:0.75}
		.st17 {fill:none;fill-rule:evenodd;font-size:12px;overflow:visible;stroke-linecap:square;stroke-miterlimit:3}
	]]>
	</style>

	<defs id="Markers">
		<g id="lend5">
			<path d="M 2 1 L 0 0 L 1.98117 -0.993387 C 1.67173 -0.364515 1.67301 0.372641 1.98465 1.00043 " style="stroke:none"/>
		</g>
		<marker id="mrkr5-46" class="st12" v:arrowType="5" v:arrowSize="2" v:setback="7.15" refX="7.15" orient="auto"
				markerUnits="strokeWidth" overflow="visible">
			<use xlink:href="#lend5" transform="scale(4.36) "/>
		</marker>
		<marker id="mrkr5-48" class="st12" v:arrowType="5" v:arrowSize="2" v:setback="7.63" refX="-7.63" orient="auto"
				markerUnits="strokeWidth" overflow="visible">
			<use xlink:href="#lend5" transform="scale(-4.36,-4.36) "/>
		</marker>
	</defs>
	<g v:mID="0" v:index="1" v:groupContext="foregroundPage">
		<title>Page-1</title>
		<v:pageProperties v:drawingScale="0.0393701" v:pageScale="0.0393701" v:drawingUnits="24" v:shadowOffsetX="9"
				v:shadowOffsetY="-9"/>
		<v:layer v:name="Connector" v:index="0"/>
		<g id="group30-1" transform="translate(37.3287,72.7087)" v:mID="30" v:groupContext="group">
			<title>Sheet.30</title>
		</g>
		<g id="shape28-2" v:mID="28" v:groupContext="shape" transform="translate(18.5,-18.4252)">
			<title>Sheet.28</title>
			<desc>Impinj Reader Chip Host Library</desc>
			<v:textBlock v:margins="rect(1,1,1,1)" v:verticalAlign="0"/>
			<v:textRect cx="245.868" cy="308.343" width="491.74" height="542.835"/>
			<rect x="0" y="36.9252" width="491.736" height="542.835" class="st1"/>
			<text x="155.85" y="50.53" class="st2" v:langID="1033"><v:paragraph v:horizAlign="1"/><v:tabList/>Impinj Reader Chip Host Library</text>		</g>
		<g id="shape29-5" v:mID="29" v:groupContext="shape" transform="translate(26.6535,-69.4488)">
			<title>Sheet.29</title>
			<desc>Modules</desc>
			<v:textBlock v:margins="rect(1,1,1,1)" v:verticalAlign="0"/>
			<v:textRect cx="236.406" cy="402.807" width="472.82" height="353.906"/>
			<path d="M0 579.76 L472.81 579.76 L472.81 225.85 L0 225.85 L0 579.76 Z" class="st3"/>
			<text x="422.09" y="239.45" class="st2" v:langID="1033"><v:paragraph v:horizAlign="2"/><v:tabList/>Modules</text>		</g>
		<g id="shape31-8" v:mID="31" v:groupContext="shape" transform="translate(328.642,-79.3701) scale(-1,1)">
			<title>Sheet.31</title>
			<desc>Ex10 Support</desc>
			<v:textBlock v:margins="rect(4,4,4,4)" v:verticalAlign="0"/>
			<v:textRect cx="145.718" cy="464.189" width="291.44" height="231.142"/>
			<rect x="0" y="348.618" width="291.437" height="231.142" class="st4"/>
			<text x="-68.89" y="363.42" transform="scale(-1,1)" class="st5" v:langID="1033"><v:paragraph v:horizAlign="2"/><v:tabList/>Ex10 Support  </text>		</g>
		<g id="shape45-11" v:mID="45" v:groupContext="shape" transform="translate(487.327,-79.3701) scale(-1,1)">
			<title>Sheet.45</title>
			<desc>Ex10 Core</desc>
			<v:textBlock v:margins="rect(4,4,4,4)" v:verticalAlign="0"/>
			<v:textRect cx="76.0766" cy="464.13" width="152.16" height="231.26"/>
			<rect x="0" y="348.5" width="152.153" height="231.26" class="st4"/>
			<text x="-52.81" y="363.3" transform="scale(-1,1)" class="st5" v:langID="1033"><v:paragraph v:horizAlign="2"/><v:tabList/>Ex10 Core</text>		</g>
		<g id="group46-14" transform="translate(334.022,-223.441)" v:mID="46" v:groupContext="group">
			<title>Sheet.46</title>
			<g id="shape47-15" v:mID="47" v:groupContext="shape" transform="translate(85.5051,-56.2913) scale(-1,1)">
				<title>Sheet.47</title>
				<desc>Ex10Ops</desc>
				<v:textBlock v:margins="rect(4,4,4,4)"/>
				<v:textRect cx="39.685" cy="568.776" width="79.38" height="21.9685"/>
				<rect x="0" y="557.791" width="79.3701" height="21.9685" class="st6"/>
				<text x="-60.77" y="572.38" transform="scale(-1,1)" class="st5" v:langID="1033"><v:paragraph v:horizAlign="1"/><v:tabList/>Ex10Ops</text>			</g>
			<g id="shape48-18" v:mID="48" v:groupContext="shape" transform="translate(147.277,113.055) scale(-1,1)">
				<title>Sheet.48</title>
				<desc>Helpers to initialize reader chip communications</desc>
				<v:textBlock v:margins="rect(4,4,4,4)"/>
				<v:textRect cx="70.2756" cy="551.047" width="140.56" height="57.4252"/>
				<rect x="0" y="522.335" width="140.551" height="57.4252" class="st6"/>
				<text x="-134.65" y="547.45" transform="scale(-1,1)" class="st5" v:langID="1033"><v:paragraph v:horizAlign="1"/><v:tabList/>Helpers to initialize reader <tspan
							x="-122.28" dy="1.2em" class="st7">chip communications</tspan></text>			</g>
		</g>
		<g id="group49-22" transform="translate(339.021,-164.013)" v:mID="49" v:groupContext="group">
			<title>Sheet.49</title>
			<g id="shape50-23" v:mID="50" v:groupContext="shape" transform="translate(11.7666,-20.8057)">
				<title>Sheet.50</title>
				<rect x="0" y="507.466" width="129.517" height="72.294" class="st8"/>
			</g>
			<g id="shape51-25" v:mID="51" v:groupContext="shape" transform="translate(135.31,-57.0607) scale(-1,1)">
				<title>Sheet.51</title>
				<desc>Ex10Command</desc>
				<v:textBlock v:margins="rect(4,4,4,4)"/>
				<v:textRect cx="58.8189" cy="570.698" width="117.64" height="18.1229"/>
				<rect x="0" y="561.637" width="117.638" height="18.1229" class="st4"/>
				<text x="-89.43" y="573.7" transform="scale(-1,1)" class="st9" v:langID="1033"><v:paragraph v:horizAlign="1"/><v:tabList/>Ex10Command</text>			</g>
			<g id="shape52-28" v:mID="52" v:groupContext="shape" transform="translate(135.31,-34.6482) scale(-1,1)">
				<title>Sheet.52</title>
				<desc>Ex10CommandTransactor</desc>
				<v:textBlock v:margins="rect(4,4,4,4)"/>
				<v:textRect cx="58.8189" cy="570.831" width="117.64" height="17.8583"/>
				<rect x="0" y="561.902" width="117.638" height="17.8583" class="st4"/>
				<text x="-111.16" y="573.83" transform="scale(-1,1)" class="st9" v:langID="1033"><v:paragraph v:horizAlign="1"/><v:tabList/>Ex10CommandTransactor</text>			</g>
			<g id="shape53-31" v:mID="53" v:groupContext="shape" transform="translate(80.3989,-89.8765) scale(-1,1)">
				<title>Sheet.53</title>
				<desc>Ex10Protocol</desc>
				<v:textBlock v:margins="rect(4,4,4,4)"/>
				<v:textRect cx="39.4389" cy="569.224" width="78.88" height="21.0709"/>
				<rect x="0" y="558.689" width="78.8778" height="21.0709" class="st6"/>
				<text x="-71.66" y="572.82" transform="scale(-1,1)" class="st5" v:langID="1033"><v:paragraph v:horizAlign="1"/><v:tabList/>Ex10Protocol</text>			</g>
		</g>
		<g id="shape54-34" v:mID="54" v:groupContext="shape" transform="translate(487.559,-330.236) scale(-1,1)">
			<title>Sheet.54</title>
			<desc>Reader Primitives</desc>
			<v:textBlock v:margins="rect(4,4,4,4)" v:verticalAlign="0"/>
			<v:textRect cx="225.354" cy="542.484" width="450.71" height="74.5512"/>
			<rect x="0" y="505.209" width="450.709" height="74.5512" class="st4"/>
			<text x="-89.74" y="520.01" transform="scale(-1,1)" class="st5" v:langID="1033"><v:paragraph v:horizAlign="2"/><v:tabList/>Reader Primitives</text>		</g>
		<g id="shape62-37" v:mID="62" v:groupContext="shape" transform="translate(28.3465,-443.835)">
			<title>Sheet.62</title>
			<desc>Use Cases</desc>
			<v:textBlock v:margins="rect(1,1,1,1)" v:verticalAlign="0"/>
			<v:textRect cx="236.976" cy="532.386" width="473.96" height="94.748"/>
			<rect x="0" y="485.012" width="473.953" height="94.748" class="st10"/>
			<text x="416.28" y="498.61" class="st2" v:langID="1033"><v:paragraph v:horizAlign="2"/><v:tabList/>Use Cases</text>		</g>
		<g id="shape66-40" v:mID="66" v:groupContext="shape" v:layerMember="0" transform="translate(256.819,-443.835)">
			<title>Dynamic connector.425</title>
			<path d="M7.09 585.12 L7.09 585.48 L7.09 594.52" class="st11"/>
		</g>
		<g id="group67-49" transform="translate(486.37,-492.835)" v:mID="67" v:groupContext="group">
			<title>Sheet.67</title>
			<g id="group68-50" transform="translate(-12.3162,0.107417)" v:mID="68" v:groupContext="group">
				<title>Icons</title>
				<g id="shape69-51" v:mID="69" v:groupContext="shape" transform="translate(6.71963,-10.8281)">
					<title>Sheet.69</title>
					<path d="M10.85 576.02 C11.06 575.65 11.23 575.26 11.36 574.86 L12.67 574.2 L12.67 572.72 L11.36 572.06 C11.25
								 571.66 11.09 571.27 10.88 570.9 L11.36 569.51 L10.29 568.43 L8.89 568.91 C8.53 568.7 8.14 568.54
								 7.73 568.43 L7.08 567.12 L5.59 567.12 L4.94 568.43 C4.53 568.54 4.14 568.7 3.78 568.91 L2.38 568.43
								 L1.31 569.5 L1.78 570.9 C1.58 571.26 1.42 571.65 1.31 572.06 L0 572.71 L0 574.2 L1.31 574.85 C1.42
								 575.26 1.58 575.65 1.78 576.01 L1.31 577.41 L2.35 578.45 L3.75 577.98 C4.11 578.18 4.5 578.34 4.91
								 578.45 L5.56 579.76 L7.05 579.76 L7.7 578.45 C8.11 578.34 8.5 578.18 8.86 577.98 L10.26 578.45 L11.33
								 577.41 L10.85 576.02 ZM10.29 576.21 L10.64 577.25 L10.1 577.78 L9.05 577.42 L8.8 577.33 L8.56 577.47
								 C8.24 577.65 7.89 577.79 7.54 577.88 L7.29 577.96 L7.17 578.19 L6.68 579.17 L5.93 579.17 L5.44 578.19
								 L5.32 577.96 L5.07 577.88 C4.71 577.79 4.37 577.65 4.05 577.47 L3.81 577.33 L3.56 577.42 L2.51 577.77
								 L1.99 577.26 L2.35 576.21 L2.44 575.95 L2.3 575.72 C2.12 575.4 1.98 575.05 1.88 574.69 L1.81 574.44
								 L1.58 574.33 L0.59 573.83 L0.59 573.08 L1.58 572.59 L1.81 572.48 L1.88 572.23 C1.98 571.87 2.12
								 571.52 2.3 571.2 L2.43 570.97 L2.35 570.71 L1.99 569.66 L2.54 569.12 L3.58 569.47 L3.84 569.56 L4.08
								 569.42 C4.4 569.24 4.74 569.1 5.1 569.01 L5.35 568.93 L5.47 568.7 L5.96 567.72 L6.71 567.72 L7.2
								 568.7 L7.32 568.93 L7.57 569 C7.93 569.1 8.27 569.24 8.59 569.42 L8.83 569.56 L9.08 569.47 L10.13
								 569.11 L10.68 569.66 L10.32 570.71 L10.23 570.96 L10.37 571.2 C10.55 571.52 10.69 571.86 10.79 572.22
								 L10.86 572.47 L11.09 572.59 L12.07 573.08 L12.07 573.83 L11.09 574.32 L10.87 574.44 L10.79 574.68
								 C10.68 575.04 10.53 575.39 10.34 575.72 L10.2 575.95 L10.29 576.21 Z" class="st13"/>
				</g>
				<g id="shape70-53" v:mID="70" v:groupContext="shape">
					<title>Sheet.70</title>
					<path d="M0 572.68 L0 574.17 L1.31 574.82 C1.42 575.23 1.58 575.62 1.78 575.98 L1.34 577.38 L2.38 578.42 L3.78
								 577.98 C4.14 578.18 4.53 578.34 4.94 578.45 L5.59 579.76 L7.08 579.76 L7.73 578.45 C8.14 578.34
								 8.53 578.18 8.89 577.98 L10.29 578.45 L11.33 577.38 L10.88 576.01 C11.09 575.65 11.25 575.26 11.36
								 574.85 L12.67 574.2 L12.67 572.71 L11.36 572.06 C11.25 571.65 11.09 571.26 10.88 570.9 L11.36 569.5
								 L10.29 568.43 L8.89 568.91 C8.52 568.71 8.13 568.55 7.73 568.43 L7.08 567.12 L5.59 567.12 L4.94
								 568.43 C4.53 568.54 4.14 568.7 3.78 568.91 L2.38 568.43 L1.34 569.47 L1.78 570.87 C1.58 571.24 1.42
								 571.63 1.31 572.03 L0 572.68 ZM1.8 572.45 L1.88 572.2 C1.98 571.84 2.12 571.5 2.3 571.17 L2.43 570.94
								 L2.35 570.69 L2.01 569.63 L2.54 569.11 L3.58 569.47 L3.84 569.56 L4.08 569.42 C4.4 569.24 4.74 569.1
								 5.1 569 L5.35 568.93 L5.47 568.7 L5.96 567.72 L6.71 567.72 L7.2 568.7 L7.31 568.93 L7.56 569 C7.92
								 569.1 8.26 569.24 8.59 569.42 L8.83 569.56 L9.08 569.47 L10.13 569.11 L10.68 569.66 L10.32 570.71
								 L10.23 570.97 L10.37 571.2 C10.55 571.52 10.69 571.87 10.79 572.22 L10.86 572.47 L11.09 572.59 L12.07
								 573.08 L12.07 573.83 L11.09 574.32 L10.86 574.44 L10.78 574.69 C10.69 575.05 10.55 575.39 10.37
								 575.71 L10.23 575.95 L10.32 576.2 L10.65 577.23 L10.12 577.77 L9.08 577.41 L8.83 577.33 L8.59 577.46
								 C8.27 577.65 7.93 577.79 7.57 577.88 L7.32 577.95 L7.2 578.19 L6.71 579.17 L5.96 579.17 L5.47 578.19
								 L5.35 577.95 L5.1 577.88 C4.74 577.79 4.4 577.65 4.08 577.46 L3.85 577.33 L3.6 577.41 L2.54 577.75
								 L2.01 577.22 L2.35 576.17 L2.43 575.91 L2.3 575.68 C2.12 575.36 1.98 575.02 1.88 574.66 L1.81 574.41
								 L1.57 574.29 L0.59 573.8 L0.59 573.05 L1.57 572.56 L1.8 572.45 Z" class="st13"/>
				</g>
				<g id="shape71-55" v:mID="71" v:groupContext="shape" transform="translate(10.8228,-14.8997)">
					<title>Sheet.71</title>
					<path d="M2.23 575.3 C1 575.3 0 576.3 0 577.53 C0 578.76 1 579.76 2.23 579.76 C3.46 579.76 4.46 578.76 4.46 577.53
								 C4.45 576.3 3.46 575.31 2.23 575.3 ZM2.23 579.17 C1.33 579.16 0.6 578.43 0.59 577.53 C0.61 576.63
								 1.33 575.91 2.23 575.89 C3.13 575.9 3.86 576.63 3.87 577.53 C3.85 578.43 3.13 579.15 2.23 579.17
								 L2.23 579.17 Z" class="st13"/>
				</g>
				<g id="shape72-57" v:mID="72" v:groupContext="shape" transform="translate(4.10165,-4.07251)">
					<title>Sheet.72</title>
					<path d="M2.23 579.76 C3.46 579.76 4.46 578.76 4.46 577.53 C4.46 576.3 3.46 575.3 2.23 575.3 C1 575.3 0 576.3
								 0 577.53 C0 578.76 1 579.76 2.23 579.76 C2.23 579.76 2.23 579.76 2.23 579.76 ZM2.23 575.89 C3.13
								 575.89 3.87 576.63 3.87 577.53 C3.87 578.43 3.13 579.16 2.23 579.16 C1.33 579.16 0.6 578.43 0.6
								 577.53 C0.6 576.63 1.33 575.89 2.23 575.89 Z" class="st13"/>
				</g>
			</g>
		</g>
		<g id="group73-59" transform="translate(457.795,-362.835)" v:mID="73" v:groupContext="group">
			<title>Sheet.73</title>
			<g id="shape74-60" v:mID="74" v:groupContext="shape">
				<title>Sheet.74</title>
				<path d="M15.22 561.71 C15.32 561.71 15.43 561.72 15.53 561.73 L14 563.26 L14.53 565.21 L16.48 565.73 L17.99 564.21
							 C18.15 565.74 17.03 567.11 15.51 567.27 C15.41 567.28 15.32 567.28 15.23 567.28 C14.99 567.28 14.75
							 567.25 14.52 567.19 L14.28 567.12 L5.81 575.6 L5.88 575.84 C6.16 576.84 5.85 577.92 5.08 578.61 C4.56
							 579.08 3.9 579.34 3.21 579.34 C3.1 579.34 3 579.33 2.89 579.32 L4.42 577.79 L3.9 575.84 L1.97 575.32
							 L0.44 576.84 C0.28 575.31 1.39 573.94 2.92 573.78 C3.01 573.77 3.1 573.77 3.2 573.77 C3.44 573.77 3.68
							 573.8 3.91 573.86 L4.14 573.93 L12.62 565.45 L12.55 565.21 C12.26 564.21 12.58 563.13 13.35 562.43 C13.86
							 561.97 14.53 561.71 15.22 561.71 ZM15.22 561.29 C13.46 561.29 12.03 562.71 12.03 564.47 C12.03 564.76
							 12.07 565.05 12.15 565.33 L4.02 573.46 C3.75 573.38 3.48 573.35 3.2 573.35 C1.43 573.35 0 574.79 0 576.56
							 C0.01 576.94 0.07 577.31 0.21 577.67 L2.09 575.78 L3.56 576.18 L3.95 577.67 L2.07 579.55 C2.43 579.69
							 2.82 579.76 3.21 579.76 C4.97 579.76 6.39 578.34 6.4 576.58 C6.4 576.29 6.36 576 6.28 575.72 L14.41
							 567.59 C14.67 567.66 14.95 567.7 15.23 567.7 C16.99 567.7 18.43 566.26 18.42 564.49 C18.42 564.11 18.35
							 563.74 18.22 563.38 L16.36 565.27 L14.87 564.87 L14.47 563.38 L16.36 561.5 C15.99 561.36 15.61 561.29
							 15.22 561.29 Z" class="st13"/>
			</g>
		</g>
		<g id="group75-62" transform="translate(292.163,-271.819)" v:mID="75" v:groupContext="group">
			<title>Sheet.75</title>
			<g id="group76-63" v:mID="76" v:groupContext="group">
				<title>Icons</title>
				<g id="shape77-64" v:mID="77" v:groupContext="shape" transform="translate(1.21902E-13,-3.90205)">
					<title>Sheet.77</title>
					<path d="M9.55 575.55 L16.25 575.55 C16.71 575.55 17.09 575.93 17.09 576.39 C17.09 576.85 16.71 577.23 16.25
								 577.23 L11.22 577.23 C11.07 577.23 10.94 577.36 10.94 577.51 C10.94 577.66 11.07 577.79 11.22 577.79
								 L16.25 577.79 C17.02 577.79 17.65 577.16 17.65 576.39 C17.65 575.62 17.02 575 16.25 575 L9.55 575
								 C9.04 575 8.55 575.13 8.11 575.39 L0.21 579.19 C0.07 579.25 0 579.41 0.06 579.55 C0.12 579.69 0.29
								 579.76 0.43 579.7 C0.43 579.7 0.44 579.69 0.45 579.69 L8.37 575.88 C8.73 575.67 9.13 575.56 9.55
								 575.55 Z" class="st13"/>
				</g>
				<g id="shape78-66" v:mID="78" v:groupContext="shape" transform="translate(3.92797,1.13687E-13)">
					<title>Sheet.78</title>
					<path d="M19.87 568.83 C19.61 568.82 19.36 568.9 19.14 569.03 L14.36 571.77 C14.23 571.85 14.18 572.02 14.26
								 572.15 C14.34 572.29 14.51 572.33 14.64 572.26 L19.43 569.51 C19.56 569.43 19.71 569.38 19.87 569.39
								 C20.33 569.39 20.7 569.76 20.7 570.23 C20.69 570.47 20.59 570.71 20.41 570.88 L12.75 576.48 C12.6
								 576.59 12.42 576.65 12.24 576.65 L7.02 576.65 C4.16 576.65 1.84 577.53 0.11 579.25 C0 579.36 0 579.53
								 0.11 579.65 C0.21 579.76 0.39 579.76 0.5 579.65 C0.5 579.65 0.51 579.65 0.51 579.65 C2.12 578.03
								 4.31 577.21 7.02 577.21 L12.24 577.21 C12.54 577.21 12.83 577.11 13.07 576.94 L20.76 571.32 L20.79
								 571.29 C21.08 571.01 21.26 570.63 21.26 570.23 C21.26 569.45 20.64 568.83 19.87 568.83 Z"
							class="st13"/>
				</g>
			</g>
		</g>
		<g id="group80-68" transform="translate(458.573,-277.338)" v:mID="80" v:groupContext="group">
			<title>Sheet.80</title>
			<g id="shape81-69" v:mID="81" v:groupContext="shape" transform="translate(-7.09433E-14,-8.84527)">
				<title>Sheet.81</title>
				<rect x="0" y="579.367" width="4.8651" height="0.393123" class="st13"/>
			</g>
			<g id="shape82-71" v:mID="82" v:groupContext="shape" transform="translate(6.48693,-8.84527)">
				<title>Sheet.82</title>
				<rect x="0" y="579.367" width="4.86529" height="0.393123" class="st13"/>
			</g>
			<g id="shape83-73" v:mID="83" v:groupContext="shape" transform="translate(6.48693,-2.75186)">
				<title>Sheet.83</title>
				<rect x="0" y="579.367" width="4.86529" height="0.393123" class="st13"/>
			</g>
			<g id="shape84-75" v:mID="84" v:groupContext="shape">
				<title>Sheet.84</title>
				<rect x="0" y="579.367" width="4.8651" height="0.393123" class="st13"/>
			</g>
			<g id="shape85-77" v:mID="85" v:groupContext="shape" transform="translate(0.429467,-5.68826)">
				<title>Sheet.85</title>
				<path d="M0.38 578.96 C0.16 578.98 0 579.16 0.01 579.38 C0.03 579.6 0.21 579.76 0.43 579.75 C0.64 579.73 0.8 579.56
							 0.8 579.35 C0.79 579.13 0.61 578.96 0.38 578.96 Z" class="st13"/>
			</g>
			<g id="shape86-79" v:mID="86" v:groupContext="shape" transform="translate(3.67293,-5.68826)">
				<title>Sheet.86</title>
				<path d="M0.38 578.96 C0.16 578.98 0 579.16 0.01 579.38 C0.03 579.6 0.21 579.76 0.43 579.75 C0.64 579.73 0.8 579.56
							 0.8 579.35 C0.79 579.13 0.61 578.96 0.38 578.96 Z" class="st13"/>
			</g>
			<g id="shape87-81" v:mID="87" v:groupContext="shape" transform="translate(6.91639,-5.68826)">
				<title>Sheet.87</title>
				<path d="M0.38 578.96 C0.16 578.98 0 579.16 0.01 579.38 C0.03 579.6 0.21 579.76 0.43 579.75 C0.64 579.73 0.8 579.56
							 0.8 579.35 C0.79 579.13 0.61 578.96 0.38 578.96 Z" class="st13"/>
			</g>
			<g id="shape88-83" v:mID="88" v:groupContext="shape" transform="translate(0.429467,-2.54327)">
				<title>Sheet.88</title>
				<path d="M0.38 578.96 C0.16 578.98 0 579.16 0.01 579.38 C0.03 579.6 0.21 579.76 0.43 579.75 C0.64 579.73 0.8 579.56
							 0.8 579.35 C0.79 579.13 0.61 578.96 0.38 578.96 Z" class="st13"/>
			</g>
			<g id="shape89-85" v:mID="89" v:groupContext="shape" transform="translate(3.67293,-2.54327)">
				<title>Sheet.89</title>
				<path d="M0.38 578.96 C0.16 578.98 0 579.16 0.01 579.38 C0.03 579.6 0.21 579.76 0.43 579.75 C0.64 579.73 0.8 579.56
							 0.8 579.35 C0.79 579.13 0.61 578.96 0.38 578.96 Z" class="st13"/>
			</g>
			<g id="shape90-87" v:mID="90" v:groupContext="shape" transform="translate(13.4034,-2.54319)">
				<title>Sheet.90</title>
				<path d="M0.38 578.96 C0.16 578.98 0 579.16 0.01 579.38 C0.03 579.6 0.21 579.76 0.43 579.75 C0.64 579.73 0.8 579.56
							 0.8 579.35 C0.79 579.13 0.61 578.96 0.38 578.96 Z" class="st13"/>
			</g>
		</g>
		<g id="shape93-89" v:mID="93" v:groupContext="shape" v:layerMember="0" transform="translate(95.2735,-338.17)">
			<title>Dynamic connector.417</title>
			<path d="M7.09 585.12 L7.09 585.48 L7.09 612.03" class="st11"/>
		</g>
		<g id="shape94-96" v:mID="94" v:groupContext="shape" transform="translate(501.142,-27.4016) scale(-1,1)">
			<title>Sheet.94</title>
			<desc>Private source files</desc>
			<v:textBlock v:margins="rect(4,4,4,4)"/>
			<v:textRect cx="237.579" cy="563.231" width="475.16" height="33.0586"/>
			<rect x="0" y="546.701" width="475.157" height="33.0586" class="st14"/>
			<text x="-283.63" y="566.83" transform="scale(-1,1)" class="st5" v:langID="1033"><v:paragraph v:horizAlign="1"/><v:tabList/>Private source files</text>		</g>
		<g id="shape97-99" v:mID="97" v:groupContext="shape" v:layerMember="0" transform="translate(404.164,-330.236)">
			<title>Dynamic connector</title>
			<path d="M7.09 585.12 L7.09 585.48 L7.09 593.64" class="st11"/>
		</g>
		<g id="shape64-106" v:mID="64" v:groupContext="shape" transform="translate(386.211,-479.157) scale(-1,1)">
			<title>Sheet.64</title>
			<desc>ex10_continuous_sequence_use_case</desc>
			<v:textBlock v:margins="rect(4,4,4,4)"/>
			<v:textRect cx="108.018" cy="568.421" width="216.04" height="22.6772"/>
			<rect x="0" y="557.083" width="216.035" height="22.6772" class="st15"/>
			<text x="-201.37" y="572.02" transform="scale(-1,1)" class="st5" v:langID="1033"><v:paragraph v:horizAlign="1"/><v:tabList/>ex10_continuous_sequence_use_case</text>		</g>
		<g id="shape65-109" v:mID="65" v:groupContext="shape" transform="translate(428.976,-452.126) scale(-1,1)">
			<title>Sheet.65</title>
			<desc>ex10_tag_access_use_case</desc>
			<v:textBlock v:margins="rect(4,4,4,4)"/>
			<v:textRect cx="107.717" cy="568.421" width="215.44" height="22.6772"/>
			<rect x="0" y="557.083" width="215.433" height="22.6772" class="st15"/>
			<text x="-173.9" y="572.02" transform="scale(-1,1)" class="st5" v:langID="1033"><v:paragraph v:horizAlign="1"/><v:tabList/>ex10_tag_access_use_case</text>		</g>
		<g id="shape63-112" v:mID="63" v:groupContext="shape" transform="translate(309.921,-505.984) scale(-1,1)">
			<title>Sheet.63</title>
			<desc>ex10_continuous_inventory_use_case</desc>
			<v:textBlock v:margins="rect(4,4,4,4)"/>
			<v:textRect cx="107.717" cy="568.421" width="215.44" height="22.6772"/>
			<rect x="0" y="557.083" width="215.433" height="22.6772" class="st15"/>
			<text x="-201.13" y="572.02" transform="scale(-1,1)" class="st5" v:langID="1033"><v:paragraph v:horizAlign="1"/><v:tabList/>ex10_continuous_inventory_use_case</text>		</g>
		<g id="group99-115" transform="translate(42.5197,-320.315)" v:mID="99" v:groupContext="group">
			<title>Sheet.99</title>
			<g id="shape56-116" v:mID="56" v:groupContext="shape" transform="translate(119.681,-17.8555) scale(-1,1)">
				<title>Sheet.56</title>
				<desc>Ex10RFPower</desc>
				<v:textBlock v:margins="rect(4,4,4,4)"/>
				<v:textRect cx="59.8404" cy="570.971" width="119.69" height="17.5776"/>
				<rect x="0" y="562.182" width="119.681" height="17.5776" class="st16"/>
				<text x="-93.1" y="574.57" transform="scale(-1,1)" class="st5" v:langID="1033"><v:paragraph v:horizAlign="1"/><v:tabList/>Ex10RFPower</text>			</g>
			<g id="shape57-119" v:mID="57" v:groupContext="shape" transform="translate(120.472,-39.1153) scale(-1,1)">
				<title>Sheet.57</title>
				<desc>Ex10Inventory</desc>
				<v:textBlock v:margins="rect(4,4,4,4)"/>
				<v:textRect cx="59.8404" cy="570.971" width="119.69" height="17.5776"/>
				<rect x="0" y="562.182" width="119.681" height="17.5776" class="st16"/>
				<text x="-94.94" y="574.57" transform="scale(-1,1)" class="st5" v:langID="1033"><v:paragraph v:horizAlign="1"/><v:tabList/>Ex10Inventory</text>			</g>
			<g id="shape58-122" v:mID="58" v:groupContext="shape" transform="translate(119.681,-60.9946) scale(-1,1)">
				<title>Sheet.58</title>
				<desc>Ex10EventFifoQueue</desc>
				<v:textBlock v:margins="rect(4,4,4,4)"/>
				<v:textRect cx="59.8404" cy="571.48" width="119.69" height="16.5592"/>
				<rect x="0" y="563.201" width="119.681" height="16.5592" class="st16"/>
				<text x="-110.68" y="575.08" transform="scale(-1,1)" class="st5" v:langID="1033"><v:paragraph v:horizAlign="1"/><v:tabList/>Ex10EventFifoQueue</text>			</g>
			<g id="shape59-125" v:mID="59" v:groupContext="shape" transform="translate(244.092,-61.3935) scale(-1,1)">
				<title>Sheet.59</title>
				<desc>Ex10ActiveRegion</desc>
				<v:textBlock v:margins="rect(4,4,4,4)"/>
				<v:textRect cx="59.8404" cy="571.48" width="119.69" height="16.5592"/>
				<rect x="0" y="563.201" width="119.681" height="16.5592" class="st16"/>
				<text x="-103.3" y="575.08" transform="scale(-1,1)" class="st5" v:langID="1033"><v:paragraph v:horizAlign="1"/><v:tabList/>Ex10ActiveRegion</text>			</g>
			<g id="shape60-128" v:mID="60" v:groupContext="shape" transform="translate(244.092,-39.5142) scale(-1,1)">
				<title>Sheet.60</title>
				<desc>Ex10Calibration</desc>
				<v:textBlock v:margins="rect(4,4,4,4)"/>
				<v:textRect cx="59.8404" cy="571.171" width="119.69" height="17.1787"/>
				<rect x="0" y="562.581" width="119.681" height="17.1787" class="st16"/>
				<text x="-98.1" y="574.77" transform="scale(-1,1)" class="st5" v:langID="1033"><v:paragraph v:horizAlign="1"/><v:tabList/>Ex10Calibration</text>			</g>
			<g id="shape61-131" v:mID="61" v:groupContext="shape" transform="translate(244.092,-17.8555) scale(-1,1)">
				<title>Sheet.61</title>
				<desc>Ex10Test</desc>
				<v:textBlock v:margins="rect(4,4,4,4)"/>
				<v:textRect cx="59.8404" cy="570.971" width="119.69" height="17.5776"/>
				<rect x="0" y="562.182" width="119.681" height="17.5776" class="st16"/>
				<text x="-81.72" y="574.57" transform="scale(-1,1)" class="st5" v:langID="1033"><v:paragraph v:horizAlign="1"/><v:tabList/>Ex10Test</text>			</g>
		</g>
		<g id="group100-134" transform="translate(42.3957,-156.094)" v:mID="100" v:groupContext="group">
			<title>Sheet.100</title>
			<g id="shape32-135" v:mID="32" v:groupContext="shape" transform="translate(38.0955,-28.8551)">
				<title>Sheet.32</title>
				<desc>Ex10_Modules</desc>
				<v:textBlock v:margins="rect(4,4,4,4)" v:verticalAlign="0"/>
				<v:textRect cx="100.666" cy="532.239" width="201.34" height="95.041"/>
				<rect x="0" y="484.719" width="201.331" height="95.041" class="st8"/>
				<text x="137.49" y="497.72" class="st9" v:langID="1033"><v:paragraph v:horizAlign="2"/><v:tabList/>Ex10_Modules</text>			</g>
			<g id="shape33-138" v:mID="33" v:groupContext="shape" transform="translate(213.957,-62.8709) scale(-1,1)">
				<title>Sheet.33</title>
				<desc>Ex10AntennaDisconnect</desc>
				<v:textBlock v:margins="rect(4,4,4,4)"/>
				<v:textRect cx="77.2147" cy="571.291" width="154.43" height="16.937"/>
				<rect x="0" y="562.823" width="154.429" height="16.937" class="st4"/>
				<text x="-126.68" y="574.29" transform="scale(-1,1)" class="st9" v:langID="1033"><v:paragraph v:horizAlign="1"/><v:tabList/>Ex10AntennaDisconnect</text>			</g>
			<g id="shape34-141" v:mID="34" v:groupContext="shape" transform="translate(213.957,-40.7607) scale(-1,1)">
				<title>Sheet.34</title>
				<desc>Ex10ListenBeforeTalk</desc>
				<v:textBlock v:margins="rect(4,4,4,4)"/>
				<v:textRect cx="77.2147" cy="571.203" width="154.43" height="17.1142"/>
				<rect x="0" y="562.646" width="154.429" height="17.1142" class="st4"/>
				<text x="-120.74" y="574.2" transform="scale(-1,1)" class="st9" v:langID="1033"><v:paragraph v:horizAlign="1"/><v:tabList/>Ex10ListenBeforeTalk</text>			</g>
			<g id="shape44-144" v:mID="44" v:groupContext="shape" transform="translate(163.681,-119.48) scale(-1,1)">
				<title>Sheet.44</title>
				<desc>Ex10RampModuleManager</desc>
				<v:textBlock v:margins="rect(4,4,4,4)"/>
				<v:textRect cx="81.8403" cy="567.458" width="163.69" height="24.6032"/>
				<rect x="0" y="555.157" width="163.681" height="24.6032" class="st6"/>
				<text x="-148.42" y="571.06" transform="scale(-1,1)" class="st5" v:langID="1033"><v:paragraph v:horizAlign="1"/><v:tabList/>Ex10RampModuleManager</text>			</g>
			<g id="shape95-147" v:mID="95" v:groupContext="shape" transform="translate(230.427,-85.5481) scale(-1,1)">
				<title>Sheet.95</title>
				<desc>Ex10AntennaDisconnectListenBeforeTalk</desc>
				<v:textBlock v:margins="rect(4,4,4,4)"/>
				<v:textRect cx="92.25" cy="569.994" width="184.5" height="19.5309"/>
				<rect x="0" y="560.229" width="184.5" height="19.5309" class="st4"/>
				<text x="-175.57" y="572.99" transform="scale(-1,1)" class="st9" v:langID="1033"><v:paragraph v:horizAlign="1"/><v:tabList/>Ex10AntennaDisconnectListenBeforeTalk</text>			</g>
		</g>
		<g id="group101-150" transform="translate(42.5197,-47.4803)" v:mID="101" v:groupContext="group">
			<title>Sheet.101</title>
			<g id="shape36-151" v:mID="36" v:groupContext="shape" transform="translate(279.204,-104.551) scale(-1,1)">
				<title>Sheet.36</title>
				<desc>Ex10 Utils</desc>
				<v:textBlock v:margins="rect(4,4,4,4)"/>
				<v:textRect cx="68.3773" cy="572.236" width="136.76" height="15.0472"/>
				<rect x="0" y="564.713" width="136.755" height="15.0472" class="st6"/>
				<text x="-88.32" y="575.24" transform="scale(-1,1)" class="st9" v:langID="1033"><v:paragraph v:horizAlign="1"/><v:tabList/>Ex10 Utils</text>			</g>
			<g id="shape37-154" v:mID="37" v:groupContext="shape" transform="translate(136.755,-83.6983) scale(-1,1)">
				<title>Sheet.37</title>
				<desc>Ex10AggregateOpBuilder</desc>
				<v:textBlock v:margins="rect(4,4,4,4)"/>
				<v:textRect cx="68.3773" cy="572.206" width="136.76" height="15.1073"/>
				<rect x="0" y="564.653" width="136.755" height="15.1073" class="st6"/>
				<text x="-119.23" y="575.21" transform="scale(-1,1)" class="st9" v:langID="1033"><v:paragraph v:horizAlign="1"/><v:tabList/>Ex10AggregateOpBuilder</text>			</g>
			<g id="shape38-157" v:mID="38" v:groupContext="shape" transform="translate(136.755,-61.8297) scale(-1,1)">
				<title>Sheet.38</title>
				<desc>Ex10Helpers</desc>
				<v:textBlock v:margins="rect(4,4,4,4)"/>
				<v:textRect cx="68.3773" cy="572.135" width="136.76" height="15.249"/>
				<rect x="0" y="564.511" width="136.755" height="15.249" class="st6"/>
				<text x="-93.62" y="575.14" transform="scale(-1,1)" class="st9" v:langID="1033"><v:paragraph v:horizAlign="1"/><v:tabList/>Ex10Helpers</text>			</g>
			<g id="shape39-160" v:mID="39" v:groupContext="shape" transform="translate(136.755,-41.4621) scale(-1,1)">
				<title>Sheet.39</title>
				<desc>Ex10Print</desc>
				<v:textBlock v:margins="rect(4,4,4,4)"/>
				<v:textRect cx="68.3773" cy="572.49" width="136.76" height="14.5404"/>
				<rect x="0" y="565.219" width="136.755" height="14.5404" class="st6"/>
				<text x="-87.83" y="575.49" transform="scale(-1,1)" class="st9" v:langID="1033"><v:paragraph v:horizAlign="1"/><v:tabList/>Ex10Print</text>			</g>
			<g id="shape40-163" v:mID="40" v:groupContext="shape" transform="translate(136.755,-104.551) scale(-1,1)">
				<title>Sheet.40</title>
				<desc>Ex10EventParser</desc>
				<v:textBlock v:margins="rect(4,4,4,4)"/>
				<v:textRect cx="68.3773" cy="572.236" width="136.76" height="15.0472"/>
				<rect x="0" y="564.713" width="136.755" height="15.0472" class="st6"/>
				<text x="-102.45" y="575.24" transform="scale(-1,1)" class="st9" v:langID="1033"><v:paragraph v:horizAlign="1"/><v:tabList/>Ex10EventParser</text>			</g>
			<g id="shape41-166" v:mID="41" v:groupContext="shape" transform="translate(279.204,-83.6983) scale(-1,1)">
				<title>Sheet.41</title>
				<desc>Ex10Gen2TxCommandmanager</desc>
				<v:textBlock v:margins="rect(4,4,4,4)"/>
				<v:textRect cx="68.3773" cy="572.206" width="136.76" height="15.1073"/>
				<rect x="0" y="564.653" width="136.755" height="15.1073" class="st6"/>
				<text x="-132.39" y="575.21" transform="scale(-1,1)" class="st9" v:langID="1033"><v:paragraph v:horizAlign="1"/><v:tabList/>Ex10Gen2TxCommandmanager</text>			</g>
			<g id="shape42-169" v:mID="42" v:groupContext="shape" transform="translate(279.204,-62.9055) scale(-1,1)">
				<title>Sheet.42</title>
				<desc>Ex10 SDK Error Reporting</desc>
				<v:textBlock v:margins="rect(4,4,4,4)"/>
				<v:textRect cx="68.3773" cy="572.236" width="136.76" height="15.0472"/>
				<rect x="0" y="564.713" width="136.755" height="15.0472" class="st6"/>
				<text x="-119.73" y="575.24" transform="scale(-1,1)" class="st9" v:langID="1033"><v:paragraph v:horizAlign="1"/><v:tabList/>Ex10 SDK Error Reporting</text>			</g>
		</g>
		<g id="shape103-172" v:mID="103" v:groupContext="shape" v:layerMember="0" transform="translate(219.685,-310.512)">
			<title>Dynamic connector.103</title>
			<path d="M7.09 574.4 L7.09 574.04 L7.09 565.76" class="st11"/>
		</g>
	</g>
</svg>
