<?xml version="1.0" encoding="UTF-8" standalone="no"?>
<!DOCTYPE svg PUBLIC "-//W3C//DTD SVG 1.1//EN" "http://www.w3.org/Graphics/SVG/1.1/DTD/svg11.dtd">
<!-- Generated by Microsoft Visio, SVG Export ex10_host_c_sdk_bd_v2.svg Page-1 -->
<svg xmlns="http://www.w3.org/2000/svg" xmlns:xlink="http://www.w3.org/1999/xlink" xmlns:ev="http://www.w3.org/2001/xml-events"
		xmlns:v="http://schemas.microsoft.com/visio/2003/SVGExtensions/" width="6.35757in" height="7.39747in"
		viewBox="0 0 457.745 532.618" xml:space="preserve" color-interpolation-filters="sRGB" class="st26">
	<v:documentProperties v:langID="1033"/>

	<style type="text/css">
	<![CDATA[
		.st1 {fill:#dbeef3;stroke:#000000;stroke-linecap:round;stroke-linejoin:round;stroke-width:1}
		.st2 {fill:#000000;font-family:Calibri;font-size:1.33333em}
		.st3 {fill:#b7dde8;stroke:#000000;stroke-linecap:round;stroke-linejoin:round;stroke-width:0.75}
		.st4 {fill:#000000;font-family:Calibri;font-size:0.833336em}
		.st5 {fill:#f9c499;stroke:#000000;stroke-linecap:round;stroke-linejoin:round;stroke-width:1}
		.st6 {fill:#000000;font-family:Calibri;font-size:1.16666em}
		.st7 {fill:none;stroke:none;stroke-linecap:round;stroke-linejoin:round;stroke-width:0.75}
		.st8 {fill:#000000;font-family:Calibri;font-size:0.916672em}
		.st9 {font-size:1em}
		.st10 {fill:#ffffff;fill-opacity:0.67;stroke:#000000;stroke-dasharray:0.75,1.5;stroke-linecap:round;stroke-linejoin:round;stroke-width:0.75}
		.st11 {fill:none}
		.st12 {stroke:#000000;stroke-dasharray:5.25,3.75;stroke-linecap:round;stroke-linejoin:round;stroke-width:0.75}
		.st13 {fill:#dbeef3;fill-opacity:0.68;stroke:#000000;stroke-linecap:round;stroke-linejoin:round;stroke-width:0.75}
		.st14 {fill:#fcebdd;fill-opacity:0.68;stroke:#000000;stroke-linecap:round;stroke-linejoin:round;stroke-width:0.75}
		.st15 {marker-end:url(#mrkr5-42);marker-start:url(#mrkr5-40);stroke:#000000;stroke-linecap:round;stroke-linejoin:round;stroke-width:0.75}
		.st16 {fill:#000000;fill-opacity:1;stroke:#000000;stroke-opacity:1;stroke-width:0.22935774506808}
		.st17 {fill:#ebf1df;fill-opacity:0.68;stroke:#000000;stroke-dasharray:0.75,1.5;stroke-linecap:round;stroke-linejoin:round;stroke-width:0.75}
		.st18 {fill:#000000;font-family:Calibri;font-size:0.666664em}
		.st19 {fill:#ffffff;fill-opacity:0.68;stroke:#000000;stroke-linecap:round;stroke-linejoin:round;stroke-width:0.75}
		.st20 {fill:#92cddc;fill-opacity:0.67;stroke:#000000;stroke-dasharray:0.75,1.5;stroke-linecap:round;stroke-linejoin:round;stroke-width:0.75}
		.st21 {fill:#fff2cc;fill-opacity:0.68;stroke:#000000;stroke-linecap:round;stroke-linejoin:round;stroke-width:0.75}
		.st22 {fill:#d7e3bf;fill-opacity:0.67;stroke:#000000;stroke-dasharray:0.75,1.5;stroke-linecap:round;stroke-linejoin:round;stroke-width:0.75}
		.st23 {fill:#000000;font-family:Calibri;font-size:0.75em}
		.st24 {marker-end:url(#mrkr5-182);marker-start:url(#mrkr5-180);stroke:#000000;stroke-linecap:round;stroke-linejoin:round;stroke-width:0.5}
		.st25 {fill:#000000;fill-opacity:1;stroke:#000000;stroke-opacity:1;stroke-width:0.16556287240607}
		.st26 {fill:none;fill-rule:evenodd;font-size:12px;overflow:visible;stroke-linecap:square;stroke-miterlimit:3}
	]]>
	</style>

	<defs id="Markers">
		<g id="lend5">
			<path d="M 2 1 L 0 0 L 1.98117 -0.993387 C 1.67173 -0.364515 1.67301 0.372641 1.98465 1.00043 " style="stroke:none"/>
		</g>
		<marker id="mrkr5-40" class="st16" v:arrowType="5" v:arrowSize="2" v:setback="0" refX="0" orient="auto"
				markerUnits="strokeWidth" overflow="visible">
			<use xlink:href="#lend5" transform="scale(4.3600010093541) "/>
		</marker>
		<marker id="mrkr5-42" class="st16" v:arrowType="5" v:arrowSize="2" v:setback="0" refX="-0" orient="auto"
				markerUnits="strokeWidth" overflow="visible">
			<use xlink:href="#lend5" transform="scale(-4.3600010093541,-4.3600010093541) "/>
		</marker>
		<marker id="mrkr5-180" class="st25" v:arrowType="5" v:arrowSize="2" v:setback="0" refX="0" orient="auto"
				markerUnits="strokeWidth" overflow="visible">
			<use xlink:href="#lend5" transform="scale(6.0400015140311) "/>
		</marker>
		<marker id="mrkr5-182" class="st25" v:arrowType="5" v:arrowSize="2" v:setback="0" refX="-0" orient="auto"
				markerUnits="strokeWidth" overflow="visible">
			<use xlink:href="#lend5" transform="scale(-6.0400015140311,-6.0400015140311) "/>
		</marker>
	</defs>
	<g v:mID="0" v:index="1" v:groupContext="foregroundPage">
		<title>Page-1</title>
		<v:pageProperties v:drawingScale="0.0393701" v:pageScale="0.0393701" v:drawingUnits="24" v:shadowOffsetX="9"
				v:shadowOffsetY="-9"/>
		<v:layer v:name="Connector" v:index="0"/>
		<g id="shape1-1" v:mID="1" v:groupContext="shape" transform="translate(35.9983,-97.4246)">
			<title>Sheet.1</title>
			<desc>Host controller</desc>
			<v:userDefs/>
			<v:textBlock v:margins="rect(1,1,1,1)" v:verticalAlign="0"/>
			<v:textRect cx="145.044" cy="324.271" width="290.09" height="416.693"/>
			<rect x="0" y="115.925" width="290.088" height="416.693" class="st1"/>
			<text x="96.29" y="131.32" class="st2" v:langID="1033"><v:paragraph v:horizAlign="1"/><v:tabList/>Host controller</text>		</g>
		<g id="shape2-4" v:mID="2" v:groupContext="shape" transform="translate(53.5555,-133.245)">
			<title>Sheet.2</title>
			<desc>Impinj Reader Chip SDK</desc>
			<v:userDefs/>
			<v:textBlock v:margins="rect(4,4,4,4)" v:verticalAlign="0"/>
			<v:textRect cx="128.268" cy="355.184" width="256.54" height="354.869"/>
			<rect x="0" y="177.749" width="256.535" height="354.869" class="st3"/>
			<text x="80.53" y="190.75" class="st4" v:langID="1033"><v:paragraph v:horizAlign="1"/><v:tabList/>Impinj Reader Chip SDK</text>		</g>
		<g id="shape3-7" v:mID="3" v:groupContext="shape" transform="translate(37.7185,-18.5006)">
			<title>Sheet.3</title>
			<desc>Impinj Reader Chip</desc>
			<v:userDefs/>
			<v:textBlock v:margins="rect(1,1,1,1)" v:verticalAlign="2"/>
			<v:textRect cx="145.044" cy="503.1" width="290.09" height="59.0354"/>
			<rect x="0" y="473.582" width="290.088" height="59.0354" class="st5"/>
			<text x="90.95" y="527.42" class="st6" v:langID="1033"><v:paragraph v:horizAlign="1"/><v:tabList/>Impinj Reader Chip</text>		</g>
		<g id="shape4-10" v:mID="4" v:groupContext="shape" transform="translate(348.806,-72.5795)">
			<title>Sheet.4</title>
			<desc>Impinj Reader Chip Wireline (SPI)</desc>
			<v:userDefs/>
			<v:textBlock v:margins="rect(4,4,4,4)"/>
			<v:textRect cx="45.2817" cy="520.219" width="90.57" height="24.7992"/>
			<rect x="0" y="507.819" width="90.5637" height="24.7992" class="st7"/>
			<text x="4" y="510.32" class="st8" v:langID="1033"><v:paragraph/><v:tabList/>Impinj Reader <tspan x="4" dy="1.2em"
						class="st9">Chip<v:lf/></tspan><tspan x="4" dy="1.2em" class="st9">Wireline (SPI)</tspan></text>		</g>
		<g id="shape5-15" v:mID="5" v:groupContext="shape" transform="translate(63.8511,-38.561)">
			<title>Sheet.5</title>
			<desc>Impinj Reader Chip Firmware Image</desc>
			<v:userDefs/>
			<v:textBlock v:margins="rect(4,4,4,4)"/>
			<v:textRect cx="109.807" cy="520.216" width="219.62" height="24.7992"/>
			<path d="M0 532.62 L219.61 532.62 L219.61 507.82 L0 507.82 L0 532.62 Z" class="st10"/>
			<text x="29.76" y="523.52" class="st8" v:langID="1033"><v:paragraph v:horizAlign="1"/><v:tabList/>Impinj Reader Chip Firmware Image</text>		</g>
		<g id="shape6-18" v:mID="6" v:groupContext="shape" transform="translate(16.2223,-85.2754) rotate(-0.231586)">
			<title>Sheet.6</title>
			<path d="M0 532.62 L324.17 532.62 L0 532.62 Z" class="st11"/>
			<path d="M0 532.62 L324.17 532.62" class="st12"/>
		</g>
		<g id="shape7-21" v:mID="7" v:groupContext="shape" transform="translate(293.956,-232.385) scale(-1,1)">
			<title>Sheet.7</title>
			<desc>Impinj Reader Chip Host Library</desc>
			<v:userDefs/>
			<v:textBlock v:margins="rect(4,4,4,4)" v:verticalAlign="0"/>
			<v:textRect cx="110.62" cy="439.999" width="221.24" height="185.238"/>
			<rect x="0" y="347.38" width="221.24" height="185.238" class="st13"/>
			<text x="-181.35" y="361.28" transform="scale(-1,1)" class="st8" v:langID="1033"><v:paragraph v:horizAlign="1"/><v:tabList/>Impinj Reader Chip Host Library</text>		</g>
		<g id="shape8-24" v:mID="8" v:groupContext="shape" transform="translate(344.85,-414.906)">
			<title>Sheet.8</title>
			<desc>Impinj Reader Chip Host API</desc>
			<v:userDefs/>
			<v:textBlock v:margins="rect(4,4,4,4)"/>
			<v:textRect cx="44.2991" cy="520.219" width="88.6" height="24.7992"/>
			<rect x="0" y="507.819" width="88.5984" height="24.7992" class="st7"/>
			<text x="4" y="516.92" class="st8" v:langID="1033"><v:paragraph/><v:tabList/>Impinj Reader <tspan x="4" dy="1.2em"
						class="st9">Chip Host API</tspan></text>		</g>
		<g id="shape9-28" v:mID="9" v:groupContext="shape" transform="translate(15.1651,-426.974) rotate(-0.367213)">
			<title>Sheet.9</title>
			<path d="M0 532.62 L326.28 532.62 L0 532.62 Z" class="st11"/>
			<path d="M0 532.62 L326.28 532.62" class="st12"/>
		</g>
		<g id="shape10-31" v:mID="10" v:groupContext="shape" transform="translate(72.1024,-439.776)">
			<title>Sheet.10</title>
			<desc>User Application</desc>
			<v:userDefs/>
			<v:textBlock v:margins="rect(4,4,4,4)"/>
			<v:textRect cx="109.807" cy="516.707" width="219.62" height="31.8232"/>
			<rect x="0" y="500.795" width="219.614" height="31.8232" class="st14"/>
			<text x="72.89" y="520.01" class="st8" v:langID="1033"><v:paragraph v:horizAlign="1"/><v:tabList/>User Application</text>		</g>
		<g id="shape11-34" v:mID="11" v:groupContext="shape" v:layerMember="0" transform="translate(181.168,-417.62)">
			<title>Dynamic connector.151</title>
			<path d="M0 510.46 L0 515.83 L0 516.19 L0 526.9 L0 532.62" class="st15"/>
		</g>
		<g id="shape12-43" v:mID="12" v:groupContext="shape" transform="translate(85.1497,-311.578)">
			<title>Sheet.12</title>
			<desc>Reader Primitives</desc>
			<v:userDefs/>
			<v:textBlock v:margins="rect(4,4,4,4)" v:verticalAlign="0"/>
			<v:textRect cx="67.3591" cy="511.034" width="134.72" height="43.1629"/>
			<path d="M0 532.62 L134.72 532.62 L134.72 489.45 L0 489.45 L0 532.62 Z" class="st17"/>
			<text x="73.56" y="500.65" class="st18" v:langID="1033"><v:paragraph v:horizAlign="2"/><v:tabList/>Reader Primitives</text>		</g>
		<g id="shape13-46" v:mID="13" v:groupContext="shape" transform="translate(161.981,-319.062) scale(-1,1)">
			<title>Sheet.13</title>
			<rect x="0" y="512.149" width="60.2085" height="20.4691" class="st19"/>
		</g>
		<g id="shape14-48" v:mID="14" v:groupContext="shape" transform="translate(154.115,-324.57) scale(-1,1)">
			<title>Sheet.14</title>
			<desc>Modules</desc>
			<v:userDefs/>
			<v:textBlock v:margins="rect(4,4,4,4)"/>
			<v:textRect cx="30.1042" cy="522.384" width="60.21" height="20.4691"/>
			<rect x="0" y="512.149" width="60.2085" height="20.4691" class="st19"/>
			<text x="-47.86" y="525.38" transform="scale(-1,1)" class="st4" v:langID="1033"><v:paragraph v:horizAlign="1"/><v:tabList/>Modules</text>		</g>
		<g id="shape15-51" v:mID="15" v:groupContext="shape" transform="translate(276.083,-255.741) scale(-1,1)">
			<title>Sheet.15</title>
			<desc>Private Source Files</desc>
			<v:userDefs/>
			<v:textBlock v:margins="rect(4,4,4,4)"/>
			<v:textRect cx="21.7926" cy="471.955" width="43.59" height="121.326"/>
			<rect x="0" y="411.292" width="43.5854" height="121.326" class="st19"/>
			<text x="-36.08" y="462.95" transform="scale(-1,1)" class="st4" v:langID="1033"><v:paragraph v:horizAlign="1"/><v:tabList/>Private <tspan
						x="-35.7" dy="1.2em" class="st9">Source </tspan><tspan x="-30.83" dy="1.2em" class="st9">Files</tspan></text>		</g>
		<g id="shape16-56" v:mID="16" v:groupContext="shape" transform="translate(178.316,-105.88)">
			<title>Sheet.16</title>
			<desc>UART</desc>
			<v:userDefs/>
			<v:textBlock v:margins="rect(4,4,4,4)"/>
			<v:textRect cx="24.2288" cy="525.471" width="48.46" height="14.2884"/>
			<path d="M0 532.62 L48.46 532.62 L48.46 518.33 L0 518.33 L0 532.62 Z" class="st20"/>
			<text x="11.85" y="528.77" class="st8" v:langID="1033"><v:paragraph v:horizAlign="1"/><v:tabList/>UART</text>		</g>
		<g id="shape17-59" v:mID="17" v:groupContext="shape" transform="translate(126.875,-105.88)">
			<title>Sheet.17</title>
			<desc>SPI</desc>
			<v:userDefs/>
			<v:textBlock v:margins="rect(4,4,4,4)"/>
			<v:textRect cx="24.2288" cy="525.471" width="48.46" height="14.2884"/>
			<path d="M0 532.62 L48.46 532.62 L48.46 518.33 L0 518.33 L0 532.62 Z" class="st20"/>
			<text x="17.47" y="528.77" class="st8" v:langID="1033"><v:paragraph v:horizAlign="1"/><v:tabList/>SPI</text>		</g>
		<g id="shape18-62" v:mID="18" v:groupContext="shape" transform="translate(75.4337,-105.88)">
			<title>Sheet.18</title>
			<desc>GPIO</desc>
			<v:userDefs/>
			<v:textBlock v:margins="rect(4,4,4,4)"/>
			<v:textRect cx="24.2288" cy="525.471" width="48.46" height="14.2884"/>
			<path d="M0 532.62 L48.46 532.62 L48.46 518.33 L0 518.33 L0 532.62 Z" class="st20"/>
			<text x="12.89" y="528.77" class="st8" v:langID="1033"><v:paragraph v:horizAlign="1"/><v:tabList/>GPIO</text>		</g>
		<g id="shape19-65" v:mID="19" v:groupContext="shape" transform="translate(74.9464,-138.609)">
			<title>Sheet.19</title>
			<desc>Board Library</desc>
			<v:userDefs/>
			<v:textBlock v:margins="rect(4,4,4,4)" v:verticalAlign="0"/>
			<v:textRect cx="110.373" cy="489.676" width="220.75" height="85.8829"/>
			<rect x="0" y="446.735" width="220.746" height="85.8829" class="st21"/>
			<text x="80.37" y="460.63" class="st8" v:langID="1033"><v:paragraph v:horizAlign="1"/><v:tabList/>Board Library</text>		</g>
		<g id="shape20-68" v:mID="20" v:groupContext="shape" transform="translate(176.108,-153.623)">
			<title>Sheet.20</title>
			<desc>UART</desc>
			<v:userDefs/>
			<v:textBlock v:margins="rect(4,4,4,4)"/>
			<v:textRect cx="22.8525" cy="525.515" width="45.71" height="14.2019"/>
			<path d="M0 532.62 L45.71 532.62 L45.71 518.42 L0 518.42 L0 532.62 Z" class="st22"/>
			<text x="10.47" y="528.82" class="st8" v:langID="1033"><v:paragraph v:horizAlign="1"/><v:tabList/>UART</text>		</g>
		<g id="shape21-71" v:mID="21" v:groupContext="shape" transform="translate(127.588,-153.623)">
			<title>Sheet.21</title>
			<desc>SPI</desc>
			<v:userDefs/>
			<v:textBlock v:margins="rect(4,4,4,4)"/>
			<v:textRect cx="22.8525" cy="525.515" width="45.71" height="14.2019"/>
			<path d="M0 532.62 L45.71 532.62 L45.71 518.42 L0 518.42 L0 532.62 Z" class="st22"/>
			<text x="16.1" y="528.82" class="st8" v:langID="1033"><v:paragraph v:horizAlign="1"/><v:tabList/>SPI</text>		</g>
		<g id="shape22-74" v:mID="22" v:groupContext="shape" transform="translate(79.0691,-153.623)">
			<title>Sheet.22</title>
			<desc>GPIO</desc>
			<v:userDefs/>
			<v:textBlock v:margins="rect(4,4,4,4)"/>
			<v:textRect cx="22.8525" cy="525.515" width="45.71" height="14.2019"/>
			<path d="M0 532.62 L45.71 532.62 L45.71 518.42 L0 518.42 L0 532.62 Z" class="st22"/>
			<text x="11.51" y="528.82" class="st8" v:langID="1033"><v:paragraph v:horizAlign="1"/><v:tabList/>GPIO</text>		</g>
		<g id="shape23-77" v:mID="23" v:groupContext="shape" transform="translate(127.394,-190.606)">
			<title>Sheet.23</title>
			<desc>Driver List</desc>
			<v:userDefs/>
			<v:textBlock v:margins="rect(4,4,4,4)"/>
			<v:textRect cx="22.8525" cy="525.515" width="45.71" height="14.2019"/>
			<path d="M0 532.62 L45.71 532.62 L45.71 518.42 L0 518.42 L0 532.62 Z" class="st22"/>
			<text x="4.43" y="528.21" class="st23" v:langID="1033"><v:paragraph v:horizAlign="1"/><v:tabList/>Driver List</text>		</g>
		<g id="shape24-80" v:mID="24" v:groupContext="shape" v:layerMember="0" transform="translate(150.347,-167.823)">
			<title>Dynamic connector.193</title>
			<path d="M0 509.83 L0 515.2 L0 515.56 L0 526.9 L0 532.62" class="st15"/>
		</g>
		<g id="shape25-87" v:mID="25" v:groupContext="shape" v:layerMember="0" transform="translate(173.097,-167.824)">
			<title>Dynamic connector.194</title>
			<path d="M0 502.29 L5.36 502.29 L5.72 502.29 L25.86 502.29 L25.86 526.9 L25.86 532.62" class="st15"/>
		</g>
		<g id="shape26-94" v:mID="26" v:groupContext="shape" v:layerMember="0" transform="translate(101.924,-167.824)">
			<title>Dynamic connector.195</title>
			<path d="M25.47 502.74 L20.11 502.74 L19.75 502.74 L0 502.74 L0 526.9 L0 532.62" class="st15"/>
		</g>
		<g id="shape27-101" v:mID="27" v:groupContext="shape" v:layerMember="0" transform="translate(101.484,-120.17)">
			<title>Dynamic connector.196</title>
			<path d="M0 499.16 L0 504.53 L0 504.89 L0 526.9 L0 532.62" class="st15"/>
		</g>
		<g id="shape28-108" v:mID="28" v:groupContext="shape" v:layerMember="0" transform="translate(150.444,-120.17)">
			<title>Dynamic connector.197</title>
			<path d="M0 499.16 L0 504.53 L0 504.89 L0 526.9 L0 532.62" class="st15"/>
		</g>
		<g id="shape29-115" v:mID="29" v:groupContext="shape" v:layerMember="0" transform="translate(200.068,-120.17)">
			<title>Dynamic connector.198</title>
			<path d="M0 499.16 L0 504.53 L0 504.89 L0 526.9 L0 532.62" class="st15"/>
		</g>
		<g id="shape30-122" v:mID="30" v:groupContext="shape" transform="translate(214.416,-172.394)">
			<title>Sheet.30</title>
			<desc>Time Helpers</desc>
			<v:userDefs/>
			<v:textBlock v:margins="rect(4,4,4,4)"/>
			<v:textRect cx="31.3875" cy="528.336" width="62.78" height="8.55907"/>
			<path d="M0 532.62 L62.78 532.62 L62.78 524.06 L0 524.06 L0 532.62 Z" class="st22"/>
			<text x="7.3" y="531.04" class="st23" v:langID="1033"><v:paragraph v:horizAlign="1"/><v:tabList/>Time Helpers</text>		</g>
		<g id="shape31-125" v:mID="31" v:groupContext="shape" v:layerMember="0" transform="translate(255.945,-120.165)">
			<title>Dynamic connector.200</title>
			<path d="M0 532.62 L0 527.26 L0 526.9 L0 486.11 L0 480.38" class="st15"/>
		</g>
		<g id="shape32-132" v:mID="32" v:groupContext="shape" transform="translate(214.416,-197.942)">
			<title>Sheet.32</title>
			<desc>FIFO</desc>
			<v:userDefs/>
			<v:textBlock v:margins="rect(4,4,4,4)"/>
			<v:textRect cx="31.3875" cy="528.336" width="62.78" height="8.55907"/>
			<path d="M0 532.62 L62.78 532.62 L62.78 524.06 L0 524.06 L0 532.62 Z" class="st22"/>
			<text x="23.14" y="531.04" class="st23" v:langID="1033"><v:paragraph v:horizAlign="1"/><v:tabList/>FIFO</text>		</g>
		<g id="shape33-135" v:mID="33" v:groupContext="shape" transform="translate(214.416,-189.487)">
			<title>Sheet.33</title>
			<desc>Calibration</desc>
			<v:userDefs/>
			<v:textBlock v:margins="rect(4,4,4,4)"/>
			<v:textRect cx="31.3875" cy="528.336" width="62.78" height="8.55907"/>
			<path d="M0 532.62 L62.78 532.62 L62.78 524.06 L0 524.06 L0 532.62 Z" class="st22"/>
			<text x="11.4" y="531.04" class="st23" v:langID="1033"><v:paragraph v:horizAlign="1"/><v:tabList/>Calibration</text>		</g>
		<g id="shape34-138" v:mID="34" v:groupContext="shape" transform="translate(214.416,-180.953)">
			<title>Sheet.34</title>
			<desc>Region</desc>
			<v:userDefs/>
			<v:textBlock v:margins="rect(4,4,4,4)"/>
			<v:textRect cx="31.3875" cy="528.336" width="62.78" height="8.55907"/>
			<path d="M0 532.62 L62.78 532.62 L62.78 524.06 L0 524.06 L0 532.62 Z" class="st22"/>
			<text x="18.82" y="531.04" class="st23" v:langID="1033"><v:paragraph v:horizAlign="1"/><v:tabList/>Region</text>		</g>
		<g id="shape35-141" v:mID="35" v:groupContext="shape" transform="translate(234.692,-105.88)">
			<title>Sheet.35</title>
			<desc>SysTick</desc>
			<v:userDefs/>
			<v:textBlock v:margins="rect(4,4,4,4)"/>
			<v:textRect cx="24.2288" cy="525.471" width="48.46" height="14.2884"/>
			<path d="M0 532.62 L48.46 532.62 L48.46 518.33 L0 518.33 L0 532.62 Z" class="st20"/>
			<text x="8.29" y="528.77" class="st8" v:langID="1033"><v:paragraph v:horizAlign="1"/><v:tabList/>SysTick</text>		</g>
		<g id="shape36-144" v:mID="36" v:groupContext="shape" v:layerMember="0" transform="translate(151.1,-63.3675)">
			<title>Dynamic connector.205</title>
			<path d="M0 490.1 L0 495.47 L0 495.83 L0 526.9 L0 532.62" class="st15"/>
		</g>
		<g id="shape37-151" v:mID="37" v:groupContext="shape" v:layerMember="0" transform="translate(150.026,-204.06)">
			<title>Dynamic connector.206</title>
			<path d="M0 504.29 L0 509.66 L0 510.02 L0 526.9 L0 532.62" class="st15"/>
		</g>
		<g id="shape38-158" v:mID="38" v:groupContext="shape" v:layerMember="0" transform="translate(245.092,-206.22)">
			<title>Dynamic connector.207</title>
			<path d="M0 506.45 L0 511.82 L0 512.18 L0 526.9 L0 532.62" class="st15"/>
		</g>
		<g id="shape39-165" v:mID="39" v:groupContext="shape" transform="translate(83.8867,-240.803)">
			<title>Sheet.39</title>
			<desc>Ex10 core</desc>
			<v:userDefs/>
			<v:textBlock v:margins="rect(4,4,4,4)" v:verticalAlign="0"/>
			<v:textRect cx="67.3591" cy="499.62" width="134.72" height="65.991"/>
			<path d="M0 532.62 L134.72 532.62 L134.72 466.63 L0 466.63 L0 532.62 Z" class="st17"/>
			<text x="99.06" y="477.82" class="st18" v:langID="1033"><v:paragraph v:horizAlign="2"/><v:tabList/>Ex10 core</text>		</g>
		<g id="shape40-168" v:mID="40" v:groupContext="shape" transform="translate(163.223,-279.117) scale(-1,1)">
			<title>Sheet.40</title>
			<desc>ex10_ops</desc>
			<v:userDefs/>
			<v:textBlock v:margins="rect(4,4,4,4)"/>
			<v:textRect cx="34.4054" cy="522.384" width="68.82" height="20.4691"/>
			<rect x="0" y="512.149" width="68.811" height="20.4691" class="st19"/>
			<text x="-51.97" y="525.38" transform="scale(-1,1)" class="st4" v:langID="1033"><v:paragraph v:horizAlign="1"/><v:tabList/>Ex10Ops</text>		</g>
		<g id="shape41-171" v:mID="41" v:groupContext="shape" transform="translate(163.644,-245.437) scale(-1,1)">
			<title>Sheet.41</title>
			<desc>ex10_protocol</desc>
			<v:userDefs/>
			<v:textBlock v:margins="rect(4,4,4,4)"/>
			<v:textRect cx="34.4054" cy="522.384" width="68.82" height="20.4691"/>
			<rect x="0" y="512.149" width="68.811" height="20.4691" class="st19"/>
			<text x="-61.25" y="525.38" transform="scale(-1,1)" class="st4" v:langID="1033"><v:paragraph v:horizAlign="1"/><v:tabList/>Ex10Protocol</text>		</g>
		<g id="shape42-174" v:mID="42" v:groupContext="shape" v:layerMember="0" transform="translate(128.55,-299.584)">
			<title>Dynamic connector.211</title>
			<path d="M0 513.14 L0 518.06 L0 518.42 L0 527.33 L0 532.62" class="st24"/>
		</g>
		<g id="shape43-183" v:mID="43" v:groupContext="shape" v:layerMember="0" transform="translate(129.031,-265.91)">
			<title>Dynamic connector.212</title>
			<path d="M0 519.41 L0 524.33 L0 524.69 L0 527.33 L0 532.62" class="st24"/>
		</g>
		<g id="shape44-190" v:mID="44" v:groupContext="shape" transform="translate(85.1497,-359.517)">
			<title>Sheet.44</title>
			<desc>Use cases</desc>
			<v:userDefs/>
			<v:textBlock v:margins="rect(4,4,4,4)" v:verticalAlign="0"/>
			<v:textRect cx="67.3591" cy="511.942" width="134.72" height="41.3463"/>
			<path d="M0 532.62 L134.72 532.62 L134.72 491.27 L0 491.27 L0 532.62 Z" class="st17"/>
			<text x="99.22" y="502.47" class="st18" v:langID="1033"><v:paragraph v:horizAlign="2"/><v:tabList/>Use cases</text>		</g>
		<g id="shape45-193" v:mID="45" v:groupContext="shape" transform="translate(159.666,-366.388) scale(-1,1)">
			<title>Sheet.45</title>
			<rect x="0" y="512.149" width="58.0476" height="20.4691" class="st19"/>
		</g>
		<g id="shape46-195" v:mID="46" v:groupContext="shape" transform="translate(152.083,-371.895) scale(-1,1)">
			<title>Sheet.46</title>
			<desc>Use Cases</desc>
			<v:userDefs/>
			<v:textBlock v:margins="rect(4,4,4,4)"/>
			<v:textRect cx="29.0237" cy="522.384" width="58.05" height="20.4691"/>
			<rect x="0" y="512.149" width="58.0476" height="20.4691" class="st19"/>
			<text x="-49.27" y="525.38" transform="scale(-1,1)" class="st4" v:langID="1033"><v:paragraph v:horizAlign="1"/><v:tabList/>Use Cases</text>		</g>
		<g id="shape47-198" v:mID="47" v:groupContext="shape" v:layerMember="0" transform="translate(127.87,-345.042)">
			<title>Dynamic connector</title>
			<path d="M0 511.27 L0 516.64 L0 517 L0 526.9 L0 532.62" class="st15"/>
		</g>
	</g>
</svg>
