<?xml version="1.0" encoding="utf-8" ?>
<svg baseProfile="full" height="120px" version="1.1" width="630px" xmlns="http://www.w3.org/2000/svg" xmlns:ev="http://www.w3.org/2001/xml-events" xmlns:xlink="http://www.w3.org/1999/xlink"><defs /><style type="text/css"><![CDATA[.text-monospace {
    font-size:12px;
    font-family:monospace;
}
.box-field {
    stroke:#002b49;
    stroke-width:1;
    fill:#67cfe3;
    fill-opacity:1;
}
.box-padding {
    fill:#ieaeff2;
    fill-opacity:1;
}
]]></style><text class="text-monospace" x="101.5" y="19.0">0</text><text class="text-monospace" x="251.5" y="19.0">1</text><text class="text-monospace" x="401.5" y="19.0">2</text><text class="text-monospace" x="551.5" y="19.0">3</text><text class="text-monospace" x="11.5" y="49.0"> 0</text><text class="text-monospace" x="11.5" y="79.0"> 4</text><text class="text-monospace" x="11.5" y="109.0"> 8</text><rect class="box-field" height="30" width="150" x="30" y="30"><title>packet_length</title></rect><text class="text-monospace" x="59.5" y="49.0">packet_length</text><rect class="box-field" height="30" width="150" x="180" y="30"><title>packet_type</title></rect><text class="text-monospace" x="216.5" y="49.0">packet_type</text><rect class="box-field" height="30" width="300" x="330" y="30"><title>sha</title></rect><text class="text-monospace" x="469.5" y="49.0">sha</text><rect class="box-field" height="30" width="600" x="30" y="60"><title>us_counter</title></rect><text class="text-monospace" x="295.0" y="79.0">us_counter</text><rect class="box-field" height="30" width="150" x="30" y="90"><title>reason</title></rect><text class="text-monospace" x="84.0" y="109.0">reason</text><rect class="box-field" height="30" width="150" x="180" y="90"><title>packet_rfu_1</title></rect><text class="text-monospace" x="213.0" y="109.0">packet_rfu_1</text><rect class="box-field" height="30" width="150" x="330" y="90"><title>packet_rfu_2</title></rect><text class="text-monospace" x="363.0" y="109.0">packet_rfu_2</text><rect class="box-field" height="30" width="150" x="480" y="90"><title>packet_rfu_3</title></rect><text class="text-monospace" x="513.0" y="109.0">packet_rfu_3</text></svg>