<?xml version="1.0" encoding="UTF-8" standalone="no"?><svg xmlns="http://www.w3.org/2000/svg" xmlns:xlink="http://www.w3.org/1999/xlink" contentStyleType="text/css" height="754px" preserveAspectRatio="none" style="width:1639px;height:754px;background:#FFFFFF;" version="1.1" viewBox="0 0 1639 754" width="1639px" zoomAndPan="magnify"><defs/><g><rect fill="none" height="26.4883" id="_title" style="stroke:none;stroke-width:1.0;" width="183" x="727" y="10"/><text fill="#000000" font-family="sans-serif" font-size="14" font-weight="bold" lengthAdjust="spacing" textLength="173" x="732" y="28.5352">Regions Getters/Setters</text><rect fill="#FFFFFF" height="173.5527" style="stroke:#181818;stroke-width:1.0;" width="10" x="538.5" y="134.5977"/><rect fill="#FFFFFF" height="173.5527" style="stroke:#181818;stroke-width:1.0;" width="10" x="538.5" y="527.3242"/><rect fill="#FFFFFF" height="87.9316" style="stroke:#181818;stroke-width:1.0;" width="10" x="1058.5" y="163.9082"/><rect fill="#FFFFFF" height="87.9316" style="stroke:#181818;stroke-width:1.0;" width="10" x="1058.5" y="337.4609"/><rect fill="#FFFFFF" height="43.3105" style="stroke:#181818;stroke-width:1.0;" width="10" x="1058.5" y="454.7031"/><rect fill="#FFFFFF" height="87.9316" style="stroke:#181818;stroke-width:1.0;" width="10" x="1058.5" y="556.6348"/><rect fill="#FFFFFF" height="29.3105" style="stroke:#181818;stroke-width:1.0;" width="10" x="1282.5" y="193.2188"/><rect fill="#FFFFFF" height="29.3105" style="stroke:#181818;stroke-width:1.0;" width="10" x="1282.5" y="585.9453"/><rect fill="#FFFFFF" height="29.3105" style="stroke:#181818;stroke-width:1.0;" width="10" x="1513" y="366.7715"/><line style="stroke:#181818;stroke-width:0.5;stroke-dasharray:5.0,5.0;" x1="41" x2="41" y1="73.9766" y2="718.877"/><line style="stroke:#181818;stroke-width:0.5;stroke-dasharray:5.0,5.0;" x1="250.5" x2="250.5" y1="73.9766" y2="718.877"/><line style="stroke:#181818;stroke-width:0.5;stroke-dasharray:5.0,5.0;" x1="543.5" x2="543.5" y1="73.9766" y2="718.877"/><line style="stroke:#181818;stroke-width:0.5;stroke-dasharray:5.0,5.0;" x1="1063" x2="1063" y1="73.9766" y2="718.877"/><line style="stroke:#181818;stroke-width:0.5;stroke-dasharray:5.0,5.0;" x1="1287" x2="1287" y1="73.9766" y2="718.877"/><line style="stroke:#181818;stroke-width:0.5;stroke-dasharray:5.0,5.0;" x1="1518" x2="1518" y1="73.9766" y2="718.877"/><rect fill="#E2E2F0" height="30.4883" rx="2.5" ry="2.5" style="stroke:#181818;stroke-width:0.5;" width="73" x="5" y="42.4883"/><text fill="#000000" font-family="sans-serif" font-size="14" lengthAdjust="spacing" textLength="59" x="12" y="63.0234">Example</text><rect fill="#E2E2F0" height="30.4883" rx="2.5" ry="2.5" style="stroke:#181818;stroke-width:0.5;" width="73" x="5" y="717.877"/><text fill="#000000" font-family="sans-serif" font-size="14" lengthAdjust="spacing" textLength="59" x="12" y="738.4121">Example</text><rect fill="#E2E2F0" height="30.4883" rx="2.5" ry="2.5" style="stroke:#181818;stroke-width:0.5;" width="84" x="208.5" y="42.4883"/><text fill="#000000" font-family="sans-serif" font-size="14" lengthAdjust="spacing" textLength="70" x="215.5" y="63.0234">board_init</text><rect fill="#E2E2F0" height="30.4883" rx="2.5" ry="2.5" style="stroke:#181818;stroke-width:0.5;" width="84" x="208.5" y="717.877"/><text fill="#000000" font-family="sans-serif" font-size="14" lengthAdjust="spacing" textLength="70" x="215.5" y="738.4121">board_init</text><rect fill="#E2E2F0" height="30.4883" rx="2.5" ry="2.5" style="stroke:#181818;stroke-width:0.5;" width="138" x="474.5" y="42.4883"/><text fill="#000000" font-family="sans-serif" font-size="14" lengthAdjust="spacing" textLength="124" x="481.5" y="63.0234">Ex10ActiveRegion</text><rect fill="#E2E2F0" height="30.4883" rx="2.5" ry="2.5" style="stroke:#181818;stroke-width:0.5;" width="138" x="474.5" y="717.877"/><text fill="#000000" font-family="sans-serif" font-size="14" lengthAdjust="spacing" textLength="124" x="481.5" y="738.4121">Ex10ActiveRegion</text><rect fill="#E2E2F0" height="30.4883" rx="2.5" ry="2.5" style="stroke:#181818;stroke-width:0.5;" width="123" x="1002" y="42.4883"/><text fill="#000000" font-family="sans-serif" font-size="14" lengthAdjust="spacing" textLength="109" x="1009" y="63.0234">Ex10Regulatory</text><rect fill="#E2E2F0" height="30.4883" rx="2.5" ry="2.5" style="stroke:#181818;stroke-width:0.5;" width="123" x="1002" y="717.877"/><text fill="#000000" font-family="sans-serif" font-size="14" lengthAdjust="spacing" textLength="109" x="1009" y="738.4121">Ex10Regulatory</text><rect fill="#E2E2F0" height="30.4883" rx="2.5" ry="2.5" style="stroke:#181818;stroke-width:0.5;" width="211" x="1182" y="42.4883"/><text fill="#000000" font-family="sans-serif" font-size="14" lengthAdjust="spacing" textLength="197" x="1189" y="63.0234">Ex10RegionRegulatory : FCC</text><rect fill="#E2E2F0" height="30.4883" rx="2.5" ry="2.5" style="stroke:#181818;stroke-width:0.5;" width="211" x="1182" y="717.877"/><text fill="#000000" font-family="sans-serif" font-size="14" lengthAdjust="spacing" textLength="197" x="1189" y="738.4121">Ex10RegionRegulatory : FCC</text><rect fill="#E2E2F0" height="30.4883" rx="2.5" ry="2.5" style="stroke:#181818;stroke-width:0.5;" width="230" x="1403" y="42.4883"/><text fill="#000000" font-family="sans-serif" font-size="14" lengthAdjust="spacing" textLength="216" x="1410" y="63.0234">Ex10RegionRegulatory : Japan2</text><rect fill="#E2E2F0" height="30.4883" rx="2.5" ry="2.5" style="stroke:#181818;stroke-width:0.5;" width="230" x="1403" y="717.877"/><text fill="#000000" font-family="sans-serif" font-size="14" lengthAdjust="spacing" textLength="216" x="1410" y="738.4121">Ex10RegionRegulatory : Japan2</text><rect fill="#FFFFFF" height="173.5527" style="stroke:#181818;stroke-width:1.0;" width="10" x="538.5" y="134.5977"/><rect fill="#FFFFFF" height="173.5527" style="stroke:#181818;stroke-width:1.0;" width="10" x="538.5" y="527.3242"/><rect fill="#FFFFFF" height="87.9316" style="stroke:#181818;stroke-width:1.0;" width="10" x="1058.5" y="163.9082"/><rect fill="#FFFFFF" height="87.9316" style="stroke:#181818;stroke-width:1.0;" width="10" x="1058.5" y="337.4609"/><rect fill="#FFFFFF" height="43.3105" style="stroke:#181818;stroke-width:1.0;" width="10" x="1058.5" y="454.7031"/><rect fill="#FFFFFF" height="87.9316" style="stroke:#181818;stroke-width:1.0;" width="10" x="1058.5" y="556.6348"/><rect fill="#FFFFFF" height="29.3105" style="stroke:#181818;stroke-width:1.0;" width="10" x="1282.5" y="193.2188"/><rect fill="#FFFFFF" height="29.3105" style="stroke:#181818;stroke-width:1.0;" width="10" x="1282.5" y="585.9453"/><rect fill="#FFFFFF" height="29.3105" style="stroke:#181818;stroke-width:1.0;" width="10" x="1513" y="366.7715"/><polygon fill="#181818" points="238.5,101.2871,248.5,105.2871,238.5,109.2871,242.5,105.2871" style="stroke:#181818;stroke-width:1.0;"/><line style="stroke:#181818;stroke-width:1.0;" x1="41.5" x2="244.5" y1="105.2871" y2="105.2871"/><text fill="#000000" font-family="sans-serif" font-size="13" lengthAdjust="spacing" textLength="185" x="48.5" y="100.5449">ex10_typical_board_setup(...)</text><polygon fill="#181818" points="526.5,130.5977,536.5,134.5977,526.5,138.5977,530.5,134.5977" style="stroke:#181818;stroke-width:1.0;"/><line style="stroke:#181818;stroke-width:1.0;" x1="250.5" x2="532.5" y1="134.5977" y2="134.5977"/><text fill="#000000" font-family="sans-serif" font-size="13" lengthAdjust="spacing" textLength="269" x="257.5" y="129.8555">set_region(REGION_FCC, TCXO_FREQ_KHZ)</text><polygon fill="#181818" points="1046.5,159.9082,1056.5,163.9082,1046.5,167.9082,1050.5,163.9082" style="stroke:#181818;stroke-width:1.0;"/><line style="stroke:#181818;stroke-width:1.0;" x1="548.5" x2="1052.5" y1="163.9082" y2="163.9082"/><text fill="#000000" font-family="sans-serif" font-size="13" lengthAdjust="spacing" textLength="155" x="555.5" y="159.166">get_region(REGION_FCC)</text><polygon fill="#181818" points="1270.5,189.2188,1280.5,193.2188,1270.5,197.2188,1274.5,193.2188" style="stroke:#181818;stroke-width:1.0;"/><line style="stroke:#181818;stroke-width:1.0;" x1="1068.5" x2="1276.5" y1="193.2188" y2="193.2188"/><text fill="#000000" font-family="sans-serif" font-size="13" lengthAdjust="spacing" textLength="75" x="1075.5" y="188.4766">get_region()</text><polygon fill="#181818" points="1079.5,218.5293,1069.5,222.5293,1079.5,226.5293,1075.5,222.5293" style="stroke:#181818;stroke-width:1.0;"/><line style="stroke:#181818;stroke-width:1.0;stroke-dasharray:2.0,2.0;" x1="1073.5" x2="1286.5" y1="222.5293" y2="222.5293"/><text fill="#000000" font-family="sans-serif" font-size="13" lengthAdjust="spacing" textLength="121" x="1085.5" y="217.7871">struct Ex10Region*</text><polygon fill="#181818" points="559.5,247.8398,549.5,251.8398,559.5,255.8398,555.5,251.8398" style="stroke:#181818;stroke-width:1.0;"/><line style="stroke:#181818;stroke-width:1.0;stroke-dasharray:2.0,2.0;" x1="553.5" x2="1062.5" y1="251.8398" y2="251.8398"/><text fill="#000000" font-family="sans-serif" font-size="13" lengthAdjust="spacing" textLength="121" x="565.5" y="247.0977">struct Ex10Region*</text><line style="stroke:#181818;stroke-width:1.0;" x1="548.5" x2="590.5" y1="281.1504" y2="281.1504"/><line style="stroke:#181818;stroke-width:1.0;" x1="590.5" x2="590.5" y1="281.1504" y2="294.1504"/><line style="stroke:#181818;stroke-width:1.0;" x1="549.5" x2="590.5" y1="294.1504" y2="294.1504"/><polygon fill="#181818" points="559.5,290.1504,549.5,294.1504,559.5,298.1504,555.5,294.1504" style="stroke:#181818;stroke-width:1.0;"/><text fill="#000000" font-family="sans-serif" font-size="13" lengthAdjust="spacing" textLength="496" x="555.5" y="276.4082">build_channel_table(fcc_region.regulatory_channels, fcc_region.channel_table)</text><polygon fill="#181818" points="261.5,304.1504,251.5,308.1504,261.5,312.1504,257.5,308.1504" style="stroke:#181818;stroke-width:1.0;"/><line style="stroke:#181818;stroke-width:1.0;stroke-dasharray:2.0,2.0;" x1="255.5" x2="542.5" y1="308.1504" y2="308.1504"/><polygon fill="#181818" points="1046.5,333.4609,1056.5,337.4609,1046.5,341.4609,1050.5,337.4609" style="stroke:#181818;stroke-width:1.0;"/><line style="stroke:#181818;stroke-width:1.0;" x1="41.5" x2="1052.5" y1="337.4609" y2="337.4609"/><text fill="#000000" font-family="sans-serif" font-size="13" lengthAdjust="spacing" textLength="177" x="48.5" y="332.7188">get_region(REGION_JAPAN2)</text><polygon fill="#181818" points="1501,362.7715,1511,366.7715,1501,370.7715,1505,366.7715" style="stroke:#181818;stroke-width:1.0;"/><line style="stroke:#181818;stroke-width:1.0;" x1="1068.5" x2="1507" y1="366.7715" y2="366.7715"/><text fill="#000000" font-family="sans-serif" font-size="13" lengthAdjust="spacing" textLength="75" x="1075.5" y="362.0293">get_region()</text><polygon fill="#181818" points="1079.5,392.082,1069.5,396.082,1079.5,400.082,1075.5,396.082" style="stroke:#181818;stroke-width:1.0;"/><line style="stroke:#181818;stroke-width:1.0;stroke-dasharray:2.0,2.0;" x1="1073.5" x2="1517" y1="396.082" y2="396.082"/><text fill="#000000" font-family="sans-serif" font-size="13" lengthAdjust="spacing" textLength="121" x="1085.5" y="391.3398">struct Ex10Region*</text><polygon fill="#181818" points="52.5,421.3926,42.5,425.3926,52.5,429.3926,48.5,425.3926" style="stroke:#181818;stroke-width:1.0;"/><line style="stroke:#181818;stroke-width:1.0;stroke-dasharray:2.0,2.0;" x1="46.5" x2="1062.5" y1="425.3926" y2="425.3926"/><text fill="#000000" font-family="sans-serif" font-size="13" lengthAdjust="spacing" textLength="121" x="58.5" y="420.6504">struct Ex10Region*</text><polygon fill="#181818" points="1046.5,450.7031,1056.5,454.7031,1046.5,458.7031,1050.5,454.7031" style="stroke:#181818;stroke-width:1.0;"/><line style="stroke:#181818;stroke-width:1.0;" x1="41.5" x2="1052.5" y1="454.7031" y2="454.7031"/><text fill="#000000" font-family="sans-serif" font-size="13" lengthAdjust="spacing" textLength="305" x="48.5" y="449.9609">set_region(REGION_JAPAN2, struct Ex10Region*)</text><polygon fill="#181818" points="1275.5,480.0137,1285.5,484.0137,1275.5,488.0137,1279.5,484.0137" style="stroke:#181818;stroke-width:1.0;"/><line style="stroke:#181818;stroke-width:1.0;" x1="1068.5" x2="1281.5" y1="484.0137" y2="484.0137"/><text fill="#000000" font-family="sans-serif" font-size="13" lengthAdjust="spacing" textLength="195" x="1075.5" y="479.2715">set_region(struct Ex10Region*)</text><polygon fill="#181818" points="52.5,494.0137,42.5,498.0137,52.5,502.0137,48.5,498.0137" style="stroke:#181818;stroke-width:1.0;"/><line style="stroke:#181818;stroke-width:1.0;stroke-dasharray:2.0,2.0;" x1="46.5" x2="1062.5" y1="498.0137" y2="498.0137"/><polygon fill="#181818" points="526.5,523.3242,536.5,527.3242,526.5,531.3242,530.5,527.3242" style="stroke:#181818;stroke-width:1.0;"/><line style="stroke:#181818;stroke-width:1.0;" x1="41.5" x2="532.5" y1="527.3242" y2="527.3242"/><text fill="#000000" font-family="sans-serif" font-size="13" lengthAdjust="spacing" textLength="291" x="48.5" y="522.582">set_region(REGION_JAPAN2, TCXO_FREQ_KHZ)</text><polygon fill="#181818" points="1046.5,552.6348,1056.5,556.6348,1046.5,560.6348,1050.5,556.6348" style="stroke:#181818;stroke-width:1.0;"/><line style="stroke:#181818;stroke-width:1.0;" x1="548.5" x2="1052.5" y1="556.6348" y2="556.6348"/><text fill="#000000" font-family="sans-serif" font-size="13" lengthAdjust="spacing" textLength="177" x="555.5" y="551.8926">get_region(REGION_JAPAN2)</text><polygon fill="#181818" points="1270.5,581.9453,1280.5,585.9453,1270.5,589.9453,1274.5,585.9453" style="stroke:#181818;stroke-width:1.0;"/><line style="stroke:#181818;stroke-width:1.0;" x1="1068.5" x2="1276.5" y1="585.9453" y2="585.9453"/><text fill="#000000" font-family="sans-serif" font-size="13" lengthAdjust="spacing" textLength="75" x="1075.5" y="581.2031">get_region()</text><polygon fill="#181818" points="1079.5,611.2559,1069.5,615.2559,1079.5,619.2559,1075.5,615.2559" style="stroke:#181818;stroke-width:1.0;"/><line style="stroke:#181818;stroke-width:1.0;stroke-dasharray:2.0,2.0;" x1="1073.5" x2="1286.5" y1="615.2559" y2="615.2559"/><text fill="#000000" font-family="sans-serif" font-size="13" lengthAdjust="spacing" textLength="121" x="1085.5" y="610.5137">struct Ex10Region*</text><polygon fill="#181818" points="559.5,640.5664,549.5,644.5664,559.5,648.5664,555.5,644.5664" style="stroke:#181818;stroke-width:1.0;"/><line style="stroke:#181818;stroke-width:1.0;stroke-dasharray:2.0,2.0;" x1="553.5" x2="1062.5" y1="644.5664" y2="644.5664"/><text fill="#000000" font-family="sans-serif" font-size="13" lengthAdjust="spacing" textLength="121" x="565.5" y="639.8242">struct Ex10Region*</text><line style="stroke:#181818;stroke-width:1.0;" x1="548.5" x2="590.5" y1="673.877" y2="673.877"/><line style="stroke:#181818;stroke-width:1.0;" x1="590.5" x2="590.5" y1="673.877" y2="686.877"/><line style="stroke:#181818;stroke-width:1.0;" x1="549.5" x2="590.5" y1="686.877" y2="686.877"/><polygon fill="#181818" points="559.5,682.877,549.5,686.877,559.5,690.877,555.5,686.877" style="stroke:#181818;stroke-width:1.0;"/><text fill="#000000" font-family="sans-serif" font-size="13" lengthAdjust="spacing" textLength="496" x="555.5" y="669.1348">build_channel_table(fcc_region.regulatory_channels, fcc_region.channel_table)</text><polygon fill="#181818" points="52.5,696.877,42.5,700.877,52.5,704.877,48.5,700.877" style="stroke:#181818;stroke-width:1.0;"/><line style="stroke:#181818;stroke-width:1.0;stroke-dasharray:2.0,2.0;" x1="46.5" x2="542.5" y1="700.877" y2="700.877"/><!--MD5=[3cc46134230551a5f7cb0988fd0aae94]
@startuml regions_usage_getters_setters
title Regions Getters/Setters

participant Example
participant board_init
participant Ex10ActiveRegion
participant Ex10Regulatory
participant reg1 as "Ex10RegionRegulatory : FCC"
participant reg2 as "Ex10RegionRegulatory : Japan2"

Example -> board_init: ex10_typical_board_setup(...)

board_init-> Ex10ActiveRegion++: set_region(REGION_FCC, TCXO_FREQ_KHZ)
Ex10ActiveRegion -> Ex10Regulatory++: get_region(REGION_FCC)
Ex10Regulatory -> reg1++: get_region()
return struct Ex10Region*
return struct Ex10Region*
Ex10ActiveRegion-> Ex10ActiveRegion: build_channel_table(fcc_region.regulatory_channels, fcc_region.channel_table)
return

Example -> Ex10Regulatory++: get_region(REGION_JAPAN2)
Ex10Regulatory -> reg2++: get_region()
return struct Ex10Region*
return struct Ex10Region*

Example -> Ex10Regulatory++: set_region(REGION_JAPAN2, struct Ex10Region*)
Ex10Regulatory -> reg1 : set_region(struct Ex10Region*)
return

Example -> Ex10ActiveRegion++: set_region(REGION_JAPAN2, TCXO_FREQ_KHZ)
Ex10ActiveRegion -> Ex10Regulatory++: get_region(REGION_JAPAN2)
Ex10Regulatory -> reg1 ++: get_region()
return struct Ex10Region*
return struct Ex10Region*
Ex10ActiveRegion-> Ex10ActiveRegion: build_channel_table(fcc_region.regulatory_channels, fcc_region.channel_table)
return

@enduml

PlantUML version 1.2022.12(Sun Oct 23 11:12:26 PDT 2022)
(GPL source distribution)
Java Runtime: OpenJDK Runtime Environment
JVM: OpenJDK 64-Bit Server VM
Default Encoding: UTF-8
Language: en
Country: US
--></g></svg>