<?xml version="1.0" encoding="UTF-8" standalone="no"?><svg xmlns="http://www.w3.org/2000/svg" xmlns:xlink="http://www.w3.org/1999/xlink" contentStyleType="text/css" height="925px" preserveAspectRatio="none" style="width:1362px;height:925px;background:#FFFFFF;" version="1.1" viewBox="0 0 1362 925" width="1362px" zoomAndPan="magnify"><defs/><g><rect fill="none" height="26.4883" id="_title" style="stroke:none;stroke-width:1.0;" width="231" x="564.5" y="10"/><text fill="#000000" font-family="sans-serif" font-size="14" font-weight="bold" lengthAdjust="spacing" textLength="221" x="569.5" y="28.5352">Regions Usage: Start Inventory</text><rect fill="#FFFFFF" height="766.7637" style="stroke:#181818;stroke-width:1.0;" width="10" x="175.5" y="105.2871"/><rect fill="#FFFFFF" height="205.1738" style="stroke:#181818;stroke-width:1.0;" width="10" x="452.5" y="395.7715"/><rect fill="#FFFFFF" height="164.8633" style="stroke:#181818;stroke-width:1.0;" width="10" x="452.5" y="648.5664"/><rect fill="#FFFFFF" height="29.3105" style="stroke:#181818;stroke-width:1.0;" width="10" x="616.5" y="696.1875"/><rect fill="#FFFFFF" height="29.3105" style="stroke:#181818;stroke-width:1.0;" width="10" x="616.5" y="754.8086"/><rect fill="#FFFFFF" height="708.1426" style="stroke:#181818;stroke-width:1.0;" width="10" x="743.5" y="134.5977"/><rect fill="#FFFFFF" height="29.3105" style="stroke:#181818;stroke-width:1.0;" width="10" x="748.5" y="425.082"/><rect fill="#FFFFFF" height="29.3105" style="stroke:#181818;stroke-width:1.0;" width="10" x="748.5" y="483.7031"/><rect fill="#FFFFFF" height="29.3105" style="stroke:#181818;stroke-width:1.0;" width="10" x="748.5" y="542.3242"/><rect fill="#FFFFFF" height="57.3105" style="stroke:#181818;stroke-width:1.0;" width="10" x="946.5" y="222.5293"/><rect fill="#FFFFFF" height="57.3105" style="stroke:#181818;stroke-width:1.0;" width="10" x="946.5" y="309.1504"/><rect fill="#FFFFFF" height="14" style="stroke:#181818;stroke-width:1.0;" width="10" x="1149.5" y="251.8398"/><rect fill="#FFFFFF" height="14" style="stroke:#181818;stroke-width:1.0;" width="10" x="1149.5" y="338.4609"/><rect fill="#FFFFFF" height="29.3105" style="stroke:#181818;stroke-width:1.0;" width="10" x="1298" y="163.9082"/><line style="stroke:#181818;stroke-width:0.5;stroke-dasharray:5.0,5.0;" x1="41" x2="41" y1="73.9766" y2="890.0508"/><line style="stroke:#181818;stroke-width:0.5;stroke-dasharray:5.0,5.0;" x1="180" x2="180" y1="73.9766" y2="890.0508"/><line style="stroke:#181818;stroke-width:0.5;stroke-dasharray:5.0,5.0;" x1="457" x2="457" y1="73.9766" y2="890.0508"/><line style="stroke:#181818;stroke-width:0.5;stroke-dasharray:5.0,5.0;" x1="621.5" x2="621.5" y1="73.9766" y2="890.0508"/><line style="stroke:#181818;stroke-width:0.5;stroke-dasharray:5.0,5.0;" x1="748.5" x2="748.5" y1="73.9766" y2="890.0508"/><line style="stroke:#181818;stroke-width:0.5;stroke-dasharray:5.0,5.0;" x1="951" x2="951" y1="73.9766" y2="890.0508"/><line style="stroke:#181818;stroke-width:0.5;stroke-dasharray:5.0,5.0;" x1="1154" x2="1154" y1="73.9766" y2="890.0508"/><line style="stroke:#181818;stroke-width:0.5;stroke-dasharray:5.0,5.0;" x1="1303" x2="1303" y1="73.9766" y2="890.0508"/><rect fill="#E2E2F0" height="30.4883" rx="2.5" ry="2.5" style="stroke:#181818;stroke-width:0.5;" width="73" x="5" y="42.4883"/><text fill="#000000" font-family="sans-serif" font-size="14" lengthAdjust="spacing" textLength="59" x="12" y="63.0234">Example</text><rect fill="#E2E2F0" height="30.4883" rx="2.5" ry="2.5" style="stroke:#181818;stroke-width:0.5;" width="73" x="5" y="889.0508"/><text fill="#000000" font-family="sans-serif" font-size="14" lengthAdjust="spacing" textLength="59" x="12" y="909.5859">Example</text><rect fill="#E2E2F0" height="30.4883" rx="2.5" ry="2.5" style="stroke:#181818;stroke-width:0.5;" width="113" x="124" y="42.4883"/><text fill="#000000" font-family="sans-serif" font-size="14" lengthAdjust="spacing" textLength="99" x="131" y="63.0234">Ex10Inventory</text><rect fill="#E2E2F0" height="30.4883" rx="2.5" ry="2.5" style="stroke:#181818;stroke-width:0.5;" width="113" x="124" y="889.0508"/><text fill="#000000" font-family="sans-serif" font-size="14" lengthAdjust="spacing" textLength="99" x="131" y="909.5859">Ex10Inventory</text><rect fill="#E2E2F0" height="30.4883" rx="2.5" ry="2.5" style="stroke:#181818;stroke-width:0.5;" width="105" x="405" y="42.4883"/><text fill="#000000" font-family="sans-serif" font-size="14" lengthAdjust="spacing" textLength="91" x="412" y="63.0234">Ex10RfPower</text><rect fill="#E2E2F0" height="30.4883" rx="2.5" ry="2.5" style="stroke:#181818;stroke-width:0.5;" width="105" x="405" y="889.0508"/><text fill="#000000" font-family="sans-serif" font-size="14" lengthAdjust="spacing" textLength="91" x="412" y="909.5859">Ex10RfPower</text><rect fill="#E2E2F0" height="30.4883" rx="2.5" ry="2.5" style="stroke:#181818;stroke-width:0.5;" width="76" x="583.5" y="42.4883"/><text fill="#000000" font-family="sans-serif" font-size="14" lengthAdjust="spacing" textLength="62" x="590.5" y="63.0234">Ex10Ops</text><rect fill="#E2E2F0" height="30.4883" rx="2.5" ry="2.5" style="stroke:#181818;stroke-width:0.5;" width="76" x="583.5" y="889.0508"/><text fill="#000000" font-family="sans-serif" font-size="14" lengthAdjust="spacing" textLength="62" x="590.5" y="909.5859">Ex10Ops</text><rect fill="#E2E2F0" height="30.4883" rx="2.5" ry="2.5" style="stroke:#181818;stroke-width:0.5;" width="138" x="679.5" y="42.4883"/><text fill="#000000" font-family="sans-serif" font-size="14" lengthAdjust="spacing" textLength="124" x="686.5" y="63.0234">Ex10ActiveRegion</text><rect fill="#E2E2F0" height="30.4883" rx="2.5" ry="2.5" style="stroke:#181818;stroke-width:0.5;" width="138" x="679.5" y="889.0508"/><text fill="#000000" font-family="sans-serif" font-size="14" lengthAdjust="spacing" textLength="124" x="686.5" y="909.5859">Ex10ActiveRegion</text><rect fill="#E2E2F0" height="30.4883" rx="2.5" ry="2.5" style="stroke:#181818;stroke-width:0.5;" width="123" x="890" y="42.4883"/><text fill="#000000" font-family="sans-serif" font-size="14" lengthAdjust="spacing" textLength="109" x="897" y="63.0234">Ex10Regulatory</text><rect fill="#E2E2F0" height="30.4883" rx="2.5" ry="2.5" style="stroke:#181818;stroke-width:0.5;" width="123" x="890" y="889.0508"/><text fill="#000000" font-family="sans-serif" font-size="14" lengthAdjust="spacing" textLength="109" x="897" y="909.5859">Ex10Regulatory</text><rect fill="#E2E2F0" height="30.4883" rx="2.5" ry="2.5" style="stroke:#181818;stroke-width:0.5;" width="171" x="1069" y="42.4883"/><text fill="#000000" font-family="sans-serif" font-size="14" lengthAdjust="spacing" textLength="157" x="1076" y="63.0234">Ex10RegionRegulatory</text><rect fill="#E2E2F0" height="30.4883" rx="2.5" ry="2.5" style="stroke:#181818;stroke-width:0.5;" width="171" x="1069" y="889.0508"/><text fill="#000000" font-family="sans-serif" font-size="14" lengthAdjust="spacing" textLength="157" x="1076" y="909.5859">Ex10RegionRegulatory</text><rect fill="#E2E2F0" height="30.4883" rx="2.5" ry="2.5" style="stroke:#181818;stroke-width:0.5;" width="106" x="1250" y="42.4883"/><text fill="#000000" font-family="sans-serif" font-size="14" lengthAdjust="spacing" textLength="92" x="1257" y="63.0234">Ex10Protocol</text><rect fill="#E2E2F0" height="30.4883" rx="2.5" ry="2.5" style="stroke:#181818;stroke-width:0.5;" width="106" x="1250" y="889.0508"/><text fill="#000000" font-family="sans-serif" font-size="14" lengthAdjust="spacing" textLength="92" x="1257" y="909.5859">Ex10Protocol</text><rect fill="#FFFFFF" height="766.7637" style="stroke:#181818;stroke-width:1.0;" width="10" x="175.5" y="105.2871"/><rect fill="#FFFFFF" height="205.1738" style="stroke:#181818;stroke-width:1.0;" width="10" x="452.5" y="395.7715"/><rect fill="#FFFFFF" height="164.8633" style="stroke:#181818;stroke-width:1.0;" width="10" x="452.5" y="648.5664"/><rect fill="#FFFFFF" height="29.3105" style="stroke:#181818;stroke-width:1.0;" width="10" x="616.5" y="696.1875"/><rect fill="#FFFFFF" height="29.3105" style="stroke:#181818;stroke-width:1.0;" width="10" x="616.5" y="754.8086"/><rect fill="#FFFFFF" height="708.1426" style="stroke:#181818;stroke-width:1.0;" width="10" x="743.5" y="134.5977"/><rect fill="#FFFFFF" height="29.3105" style="stroke:#181818;stroke-width:1.0;" width="10" x="748.5" y="425.082"/><rect fill="#FFFFFF" height="29.3105" style="stroke:#181818;stroke-width:1.0;" width="10" x="748.5" y="483.7031"/><rect fill="#FFFFFF" height="29.3105" style="stroke:#181818;stroke-width:1.0;" width="10" x="748.5" y="542.3242"/><rect fill="#FFFFFF" height="57.3105" style="stroke:#181818;stroke-width:1.0;" width="10" x="946.5" y="222.5293"/><rect fill="#FFFFFF" height="57.3105" style="stroke:#181818;stroke-width:1.0;" width="10" x="946.5" y="309.1504"/><rect fill="#FFFFFF" height="14" style="stroke:#181818;stroke-width:1.0;" width="10" x="1149.5" y="251.8398"/><rect fill="#FFFFFF" height="14" style="stroke:#181818;stroke-width:1.0;" width="10" x="1149.5" y="338.4609"/><rect fill="#FFFFFF" height="29.3105" style="stroke:#181818;stroke-width:1.0;" width="10" x="1298" y="163.9082"/><polygon fill="#181818" points="163.5,101.2871,173.5,105.2871,163.5,109.2871,167.5,105.2871" style="stroke:#181818;stroke-width:1.0;"/><line style="stroke:#181818;stroke-width:1.0;" x1="41.5" x2="169.5" y1="105.2871" y2="105.2871"/><text fill="#000000" font-family="sans-serif" font-size="13" lengthAdjust="spacing" textLength="115" x="48.5" y="100.5449">start_inventory(...)</text><polygon fill="#181818" points="731.5,130.5977,741.5,134.5977,731.5,138.5977,735.5,134.5977" style="stroke:#181818;stroke-width:1.0;"/><line style="stroke:#181818;stroke-width:1.0;" x1="185.5" x2="737.5" y1="134.5977" y2="134.5977"/><text fill="#000000" font-family="sans-serif" font-size="13" lengthAdjust="spacing" textLength="201" x="192.5" y="129.8555">update_channel_time_tracking()</text><polygon fill="#181818" points="1286,159.9082,1296,163.9082,1286,167.9082,1290,163.9082" style="stroke:#181818;stroke-width:1.0;"/><line style="stroke:#181818;stroke-width:1.0;" x1="753.5" x2="1292" y1="163.9082" y2="163.9082"/><text fill="#000000" font-family="sans-serif" font-size="13" lengthAdjust="spacing" textLength="257" x="760.5" y="159.166">read_multiple(last_tx_ramp_up_time_ ...)</text><polygon fill="#181818" points="764.5,189.2188,754.5,193.2188,764.5,197.2188,760.5,193.2188" style="stroke:#181818;stroke-width:1.0;"/><line style="stroke:#181818;stroke-width:1.0;stroke-dasharray:2.0,2.0;" x1="758.5" x2="1302" y1="193.2188" y2="193.2188"/><text fill="#000000" font-family="sans-serif" font-size="13" lengthAdjust="spacing" textLength="70" x="770.5" y="188.4766">Ex10Result</text><polygon fill="#181818" points="934.5,218.5293,944.5,222.5293,934.5,226.5293,938.5,222.5293" style="stroke:#181818;stroke-width:1.0;"/><line style="stroke:#181818;stroke-width:1.0;" x1="753.5" x2="940.5" y1="222.5293" y2="222.5293"/><text fill="#000000" font-family="sans-serif" font-size="13" lengthAdjust="spacing" textLength="174" x="760.5" y="217.7871">regulatory_timer_set_start()</text><polygon fill="#181818" points="1137.5,247.8398,1147.5,251.8398,1137.5,255.8398,1141.5,251.8398" style="stroke:#181818;stroke-width:1.0;"/><line style="stroke:#181818;stroke-width:1.0;" x1="956.5" x2="1143.5" y1="251.8398" y2="251.8398"/><text fill="#000000" font-family="sans-serif" font-size="13" lengthAdjust="spacing" textLength="174" x="963.5" y="247.0977">regulatory_timer_set_start()</text><polygon fill="#181818" points="967.5,261.8398,957.5,265.8398,967.5,269.8398,963.5,265.8398" style="stroke:#181818;stroke-width:1.0;"/><line style="stroke:#181818;stroke-width:1.0;stroke-dasharray:2.0,2.0;" x1="961.5" x2="1153.5" y1="265.8398" y2="265.8398"/><polygon fill="#181818" points="764.5,275.8398,754.5,279.8398,764.5,283.8398,760.5,279.8398" style="stroke:#181818;stroke-width:1.0;"/><line style="stroke:#181818;stroke-width:1.0;stroke-dasharray:2.0,2.0;" x1="758.5" x2="950.5" y1="279.8398" y2="279.8398"/><polygon fill="#181818" points="934.5,305.1504,944.5,309.1504,934.5,313.1504,938.5,309.1504" style="stroke:#181818;stroke-width:1.0;"/><line style="stroke:#181818;stroke-width:1.0;" x1="753.5" x2="940.5" y1="309.1504" y2="309.1504"/><text fill="#000000" font-family="sans-serif" font-size="13" lengthAdjust="spacing" textLength="168" x="760.5" y="304.4082">regulatory_timer_set_end()</text><polygon fill="#181818" points="1137.5,334.4609,1147.5,338.4609,1137.5,342.4609,1141.5,338.4609" style="stroke:#181818;stroke-width:1.0;"/><line style="stroke:#181818;stroke-width:1.0;" x1="956.5" x2="1143.5" y1="338.4609" y2="338.4609"/><text fill="#000000" font-family="sans-serif" font-size="13" lengthAdjust="spacing" textLength="168" x="963.5" y="333.7188">regulatory_timer_set_end()</text><polygon fill="#181818" points="967.5,348.4609,957.5,352.4609,967.5,356.4609,963.5,352.4609" style="stroke:#181818;stroke-width:1.0;"/><line style="stroke:#181818;stroke-width:1.0;stroke-dasharray:2.0,2.0;" x1="961.5" x2="1153.5" y1="352.4609" y2="352.4609"/><polygon fill="#181818" points="764.5,362.4609,754.5,366.4609,764.5,370.4609,760.5,366.4609" style="stroke:#181818;stroke-width:1.0;"/><line style="stroke:#181818;stroke-width:1.0;stroke-dasharray:2.0,2.0;" x1="758.5" x2="950.5" y1="366.4609" y2="366.4609"/><polygon fill="#181818" points="440.5,391.7715,450.5,395.7715,440.5,399.7715,444.5,395.7715" style="stroke:#181818;stroke-width:1.0;"/><line style="stroke:#181818;stroke-width:1.0;" x1="185.5" x2="446.5" y1="395.7715" y2="395.7715"/><text fill="#000000" font-family="sans-serif" font-size="13" lengthAdjust="spacing" textLength="248" x="192.5" y="391.0293">build_cw_configs(antenna, rf_mode, ...)</text><polygon fill="#181818" points="736.5,421.082,746.5,425.082,736.5,429.082,740.5,425.082" style="stroke:#181818;stroke-width:1.0;"/><line style="stroke:#181818;stroke-width:1.0;" x1="462.5" x2="742.5" y1="425.082" y2="425.082"/><text fill="#000000" font-family="sans-serif" font-size="13" lengthAdjust="spacing" textLength="157" x="469.5" y="420.3398">get_ex10_active_region()</text><polygon fill="#181818" points="473.5,450.3926,463.5,454.3926,473.5,458.3926,469.5,454.3926" style="stroke:#181818;stroke-width:1.0;"/><line style="stroke:#181818;stroke-width:1.0;stroke-dasharray:2.0,2.0;" x1="467.5" x2="742.5" y1="454.3926" y2="454.3926"/><text fill="#000000" font-family="sans-serif" font-size="13" lengthAdjust="spacing" textLength="161" x="479.5" y="449.6504">region: Ex10ActiveRegion</text><polygon fill="#181818" points="736.5,479.7031,746.5,483.7031,736.5,487.7031,740.5,483.7031" style="stroke:#181818;stroke-width:1.0;"/><line style="stroke:#181818;stroke-width:1.0;" x1="462.5" x2="742.5" y1="483.7031" y2="483.7031"/><text fill="#000000" font-family="sans-serif" font-size="13" lengthAdjust="spacing" textLength="149" x="469.5" y="478.9609">get_next_channel_khz()</text><polygon fill="#181818" points="473.5,509.0137,463.5,513.0137,473.5,517.0137,469.5,513.0137" style="stroke:#181818;stroke-width:1.0;"/><line style="stroke:#181818;stroke-width:1.0;stroke-dasharray:2.0,2.0;" x1="467.5" x2="742.5" y1="513.0137" y2="513.0137"/><text fill="#000000" font-family="sans-serif" font-size="13" lengthAdjust="spacing" textLength="153" x="479.5" y="508.2715">frequency_khz: uint32_t</text><polygon fill="#181818" points="736.5,538.3242,746.5,542.3242,736.5,546.3242,740.5,542.3242" style="stroke:#181818;stroke-width:1.0;"/><line style="stroke:#181818;stroke-width:1.0;" x1="462.5" x2="742.5" y1="542.3242" y2="542.3242"/><text fill="#000000" font-family="sans-serif" font-size="13" lengthAdjust="spacing" textLength="237" x="469.5" y="537.582">get_next_channel_regulatory_timers()</text><polygon fill="#181818" points="473.5,567.6348,463.5,571.6348,473.5,575.6348,469.5,571.6348" style="stroke:#181818;stroke-width:1.0;"/><line style="stroke:#181818;stroke-width:1.0;stroke-dasharray:2.0,2.0;" x1="467.5" x2="742.5" y1="571.6348" y2="571.6348"/><text fill="#000000" font-family="sans-serif" font-size="13" lengthAdjust="spacing" textLength="257" x="479.5" y="566.8926">cw_config.timers: Ex10RegulatoryTimers</text><polygon fill="#181818" points="196.5,596.9453,186.5,600.9453,196.5,604.9453,192.5,600.9453" style="stroke:#181818;stroke-width:1.0;"/><line style="stroke:#181818;stroke-width:1.0;stroke-dasharray:2.0,2.0;" x1="190.5" x2="456.5" y1="600.9453" y2="600.9453"/><text fill="#000000" font-family="sans-serif" font-size="13" lengthAdjust="spacing" textLength="133" x="202.5" y="596.2031">cw_config: CwConfig</text><polygon fill="#181818" points="440.5,644.5664,450.5,648.5664,440.5,652.5664,444.5,648.5664" style="stroke:#181818;stroke-width:1.0;"/><line style="stroke:#181818;stroke-width:1.0;" x1="185.5" x2="446.5" y1="648.5664" y2="648.5664"/><text fill="#000000" font-family="sans-serif" font-size="13" lengthAdjust="spacing" textLength="132" x="192.5" y="643.8242">cw_on(cw_config, ...)</text><path d="M467,613.9453 L467,668.9453 L946,668.9453 L946,623.9453 L936,613.9453 L467,613.9453 " fill="#FEFFDD" style="stroke:#181818;stroke-width:0.5;"/><path d="M936,613.9453 L936,623.9453 L946,623.9453 L936,613.9453 " fill="#FEFFDD" style="stroke:#181818;stroke-width:0.5;"/><text fill="#000000" font-family="sans-serif" font-size="13" lengthAdjust="spacing" textLength="458" x="473" y="631.5137">The AggregateOp is built, in part from the information acquired from the</text><text fill="#000000" font-family="sans-serif" font-size="13" lengthAdjust="spacing" textLength="454" x="473" y="646.8242">Ex10ActiveRegion. When the AggregateOp is started, and successfulling</text><text fill="#000000" font-family="sans-serif" font-size="13" lengthAdjust="spacing" textLength="305" x="473" y="662.1348">completed, then CW will be correctly ramped up.</text><polygon fill="#181818" points="604.5,692.1875,614.5,696.1875,604.5,700.1875,608.5,696.1875" style="stroke:#181818;stroke-width:1.0;"/><line style="stroke:#181818;stroke-width:1.0;" x1="462.5" x2="610.5" y1="696.1875" y2="696.1875"/><text fill="#000000" font-family="sans-serif" font-size="13" lengthAdjust="spacing" textLength="121" x="469.5" y="691.4453">run_aggregate_op()</text><polygon fill="#181818" points="473.5,721.498,463.5,725.498,473.5,729.498,469.5,725.498" style="stroke:#181818;stroke-width:1.0;"/><line style="stroke:#181818;stroke-width:1.0;stroke-dasharray:2.0,2.0;" x1="467.5" x2="620.5" y1="725.498" y2="725.498"/><text fill="#000000" font-family="sans-serif" font-size="13" lengthAdjust="spacing" textLength="70" x="479.5" y="720.7559">Ex10Result</text><polygon fill="#181818" points="604.5,750.8086,614.5,754.8086,604.5,758.8086,608.5,754.8086" style="stroke:#181818;stroke-width:1.0;"/><line style="stroke:#181818;stroke-width:1.0;" x1="462.5" x2="610.5" y1="754.8086" y2="754.8086"/><text fill="#000000" font-family="sans-serif" font-size="13" lengthAdjust="spacing" textLength="135" x="469.5" y="750.0664">wait_op_completion()</text><polygon fill="#181818" points="473.5,780.1191,463.5,784.1191,473.5,788.1191,469.5,784.1191" style="stroke:#181818;stroke-width:1.0;"/><line style="stroke:#181818;stroke-width:1.0;stroke-dasharray:2.0,2.0;" x1="467.5" x2="620.5" y1="784.1191" y2="784.1191"/><text fill="#000000" font-family="sans-serif" font-size="13" lengthAdjust="spacing" textLength="70" x="479.5" y="779.377">Ex10Result</text><polygon fill="#181818" points="196.5,809.4297,186.5,813.4297,196.5,817.4297,192.5,813.4297" style="stroke:#181818;stroke-width:1.0;"/><line style="stroke:#181818;stroke-width:1.0;stroke-dasharray:2.0,2.0;" x1="190.5" x2="456.5" y1="813.4297" y2="813.4297"/><text fill="#000000" font-family="sans-serif" font-size="13" lengthAdjust="spacing" textLength="70" x="202.5" y="808.6875">Ex10Result</text><polygon fill="#181818" points="196.5,838.7402,186.5,842.7402,196.5,846.7402,192.5,842.7402" style="stroke:#181818;stroke-width:1.0;"/><line style="stroke:#181818;stroke-width:1.0;stroke-dasharray:2.0,2.0;" x1="190.5" x2="747.5" y1="842.7402" y2="842.7402"/><text fill="#000000" font-family="sans-serif" font-size="13" lengthAdjust="spacing" textLength="70" x="202.5" y="837.998">Ex10Result</text><polygon fill="#181818" points="52.5,868.0508,42.5,872.0508,52.5,876.0508,48.5,872.0508" style="stroke:#181818;stroke-width:1.0;"/><line style="stroke:#181818;stroke-width:1.0;stroke-dasharray:2.0,2.0;" x1="46.5" x2="179.5" y1="872.0508" y2="872.0508"/><text fill="#000000" font-family="sans-serif" font-size="13" lengthAdjust="spacing" textLength="70" x="58.5" y="867.3086">Ex10Result</text><!--MD5=[5269001029da1aa8a190f8ac06946063]
@startuml regions_usage_inventory_start
title Regions Usage: Start Inventory

participant Example
participant Ex10Inventory
participant Ex10RfPower
participant Ex10Ops
participant Ex10ActiveRegion
participant Ex10Regulatory
participant Ex10RegionRegulatory
participant Ex10Protocol
' participant Ex10GpioInterface

Example -> Ex10Inventory++: start_inventory(...)
Ex10Inventory -> Ex10ActiveRegion++: update_channel_time_tracking()
Ex10ActiveRegion -> Ex10Protocol++: read_multiple(last_tx_ramp_up_time_ ...)
return Ex10Result
Ex10ActiveRegion -> Ex10Regulatory++: regulatory_timer_set_start()
Ex10Regulatory -> Ex10RegionRegulatory++: regulatory_timer_set_start()
return
return
Ex10ActiveRegion -> Ex10Regulatory++: regulatory_timer_set_end()
Ex10Regulatory -> Ex10RegionRegulatory++: regulatory_timer_set_end()
return
return
Ex10Inventory -> Ex10RfPower++: build_cw_configs(antenna, rf_mode, ...)
Ex10RfPower -> Ex10ActiveRegion++: get_ex10_active_region()
return region: Ex10ActiveRegion
Ex10RfPower -> Ex10ActiveRegion++: get_next_channel_khz()
return frequency_khz: uint32_t
Ex10RfPower -> Ex10ActiveRegion++: get_next_channel_regulatory_timers()
return cw_config.timers: Ex10RegulatoryTimers

return cw_config: CwConfig
Ex10Inventory -> Ex10RfPower++: cw_on(cw_config, ...)

note right
    The AggregateOp is built, in part from the information acquired from the
    Ex10ActiveRegion. When the AggregateOp is started, and successfulling
    completed, then CW will be correctly ramped up.
endnote

Ex10RfPower -> Ex10Ops++: run_aggregate_op()
return Ex10Result
Ex10RfPower -> Ex10Ops++: wait_op_completion()
return Ex10Result

return Ex10Result
return Ex10Result
return Ex10Result

@enduml

@startuml regions_usage_inventory_start
title Regions Usage: Start Inventory

participant Example
participant Ex10Inventory
participant Ex10RfPower
participant Ex10Ops
participant Ex10ActiveRegion
participant Ex10Regulatory
participant Ex10RegionRegulatory
participant Ex10Protocol

Example -> Ex10Inventory++: start_inventory(...)
Ex10Inventory -> Ex10ActiveRegion++: update_channel_time_tracking()
Ex10ActiveRegion -> Ex10Protocol++: read_multiple(last_tx_ramp_up_time_ ...)
return Ex10Result
Ex10ActiveRegion -> Ex10Regulatory++: regulatory_timer_set_start()
Ex10Regulatory -> Ex10RegionRegulatory++: regulatory_timer_set_start()
return
return
Ex10ActiveRegion -> Ex10Regulatory++: regulatory_timer_set_end()
Ex10Regulatory -> Ex10RegionRegulatory++: regulatory_timer_set_end()
return
return
Ex10Inventory -> Ex10RfPower++: build_cw_configs(antenna, rf_mode, ...)
Ex10RfPower -> Ex10ActiveRegion++: get_ex10_active_region()
return region: Ex10ActiveRegion
Ex10RfPower -> Ex10ActiveRegion++: get_next_channel_khz()
return frequency_khz: uint32_t
Ex10RfPower -> Ex10ActiveRegion++: get_next_channel_regulatory_timers()
return cw_config.timers: Ex10RegulatoryTimers

return cw_config: CwConfig
Ex10Inventory -> Ex10RfPower++: cw_on(cw_config, ...)

note right
    The AggregateOp is built, in part from the information acquired from the
    Ex10ActiveRegion. When the AggregateOp is started, and successfulling
    completed, then CW will be correctly ramped up.
endnote

Ex10RfPower -> Ex10Ops++: run_aggregate_op()
return Ex10Result
Ex10RfPower -> Ex10Ops++: wait_op_completion()
return Ex10Result

return Ex10Result
return Ex10Result
return Ex10Result

@enduml

PlantUML version 1.2022.12(Sun Oct 23 11:12:26 PDT 2022)
(GPL source distribution)
Java Runtime: OpenJDK Runtime Environment
JVM: OpenJDK 64-Bit Server VM
Default Encoding: UTF-8
Language: en
Country: US
--></g></svg>